<svg version="1.2" xmlns="http://www.w3.org/2000/svg" viewBox="0 0 820 312" width="820" height="312"><defs><clipPath clipPathUnits="userSpaceOnUse" id="cp1"><path d="m820 312h-820v-312h820z"/></clipPath></defs><style>tspan{white-space:pre}.a{fill:#f2e6c9}.b{fill:#fff9eb}.c{fill:#eaa224}.d{fill:#bc3949}.e{fill:#4c5bbf}.f{fill:#e55560}.g{fill:#222949}.h{fill:#c6ba9e}.i{fill:#fff}.j{fill:#faf6ed}.k{fill:#6b7edd}.l{fill:none;stroke:#faf6ed;stroke-miterlimit:10;stroke-width:.5}.m{fill:none;stroke:#c6ba9e;stroke-miterlimit:10;stroke-width:.5}.n{fill:#ffcf64}.o{fill:none;stroke:#222949;stroke-linecap:round;stroke-linejoin:round;stroke-width:.9}.p{fill:#dcd7c9}.q{fill:none;stroke:#171c38;stroke-linecap:round;stroke-linejoin:round;stroke-width:.5}.r{fill:none;stroke:#171c38;stroke-linecap:round;stroke-linejoin:round;stroke-width:.4}.s{fill:none;stroke:#c6ba9e;stroke-miterlimit:10;stroke-width:.4}.t{mix-blend-mode:multiply;fill:none;stroke:#c6ba9e;stroke-miterlimit:10;stroke-width:.4}.u{fill:#384193}.v{fill:none;stroke:#171c38;stroke-linecap:round;stroke-linejoin:round;stroke-width:.7}.w{fill:none;stroke:#c6ba9e;stroke-miterlimit:10;stroke-width:.7}.x{mix-blend-mode:multiply;fill:none;stroke:#c6ba9e;stroke-miterlimit:10;stroke-width:.7}.y{fill:none;stroke:#171c38;stroke-linecap:round;stroke-linejoin:round;stroke-width:.6}.z{fill:none;stroke:#c6ba9e;stroke-miterlimit:10;stroke-width:.6}.A{mix-blend-mode:multiply;fill:none;stroke:#c6ba9e;stroke-miterlimit:10;stroke-width:.6}.B{fill:none;stroke:#dcd7c9;stroke-linecap:round;stroke-linejoin:round;stroke-width:.5}.C{font-size: 7px;fill: #222949;font-weight: 400;font-family: "Poppins-Regular", "Poppins"}.D{font-size: 21px;fill: #ffffff;font-weight: 400;font-family: "DelaGothicOne-Regular", "Dela Gothic One"}.E{font-size: 29px;fill: #384193;font-weight: 400;font-family: "DelaGothicOne-Regular", "Dela Gothic One"}.F{font-size: 77px;fill: #222949;font-weight: 400;font-family: "DelaGothicOne-Regular", "Dela Gothic One"}.G{font-size: 19px;fill: #222949;font-weight: 700;font-family: "Poppins-Bold", "Poppins"}</style><path class="a" d="m820 312h-820v-312h820z"/><g clip-path="url(#cp1)"><path class="b" d="m37.2 245.1c13.9 12.1 24 27.8 37.2 40.7 36.3 35.4 96 43.9 140.7 19.9 20-10.7 37.5-27.2 59.7-31.9 20.8-4.5 42.1 2.2 63.2 4.6 21.1 2.3 46-1.9 56.6-20.3 6.4-11.2 6-24.8 5.7-37.7-0.4-19.5 0.1-39.3 6.2-57.8 6.1-18.6 18.5-35.8 36.3-43.7 28.7-12.8 66.2 0 90.8-19.5 30.1-23.9 15.4-73.9 33.4-107.9 8.5-16.1 24-27.5 40.3-35.7 53.8-27.3 117.8-25 177.4-15.1 16.6 2.7 34.6 6.8 45.3 19.9 7.8 9.5 10.3 22.2 12.1 34.4 10.2 69.9 5.1 141.1 0 211.6q-5.2 71.7-10.4 143.3c-0.4 5.2-0.9 10.6-3.8 14.9-3.5 5.2-9.8 7.6-15.7 9.5-39.7 12.5-81.9 14.4-123.5 14.8-185.4 1.7-370.1-24.4-555.5-24.2-38.9 0-77.7 1.2-116.5-1.2-6.1-0.4-12.5-1-18-4-6.7-3.7-11-10.7-14.3-17.7-13.4-28.5-16.3-63-6.7-93.2 9.3-29.4 40.5-20.2 59.5-3.7z"/></g><path class="c" d="m123.5 95.9c-0.1 4.1-0.1 10.6 1.4 13.8 2.7 5.7 8 4 12.2 4q24.9 0.2 49.9 0.4c2.5 0 5.1-0.1 8.2-0.4 2.5-0.3 4.3-0.3 5.6-4 2.2-6 2.3-19-1.3-22.4-2.1-2.1-6.3-1.9-8.7-2-10.3-0.2-20.3 0.5-30.6 0.2-10.2-0.3-20.5-0.1-30.6-0.1-1.5 0-3.1-0.1-4.2 1.8-1.4 2.4-1.7 5.4-1.9 8.7z"/><path class="c" d="m59.1 212.1c-0.4 4-0.5 10.4 3.6 13.5 7 5.5 21.1 3.8 32.1 3.9q65.8 0.2 131.6 0.3c6.6 0.1 13.5 0 21.6-0.4 6.7-0.3 11.4-0.3 14.9-3.9 5.7-5.8 5.9-18.4-3.4-21.8-5.7-2-16.5-1.8-23.1-1.9-27-0.2-53.6 0.5-80.6 0.2-26.8-0.3-54-0.1-80.8-0.1-3.8 0-8.2-0.1-11.1 1.7-3.7 2.4-4.5 5.4-4.8 8.5z"/><path class="d" d="m583.2 280.3q0.1-0.1 0.1-0.3c0.6-3.3 3.6-5.6 7-5.3l13.4 1.2c0.9 0.1 1.7 0.5 2.3 1.2 0.5 0.7 0.8 1.6 0.7 2.5-0.3 1.7-1.7 2.9-3.4 2.8l-6.4-0.3v-1.7l6.5 0.3c0.8 0 1.4-0.5 1.5-1.3 0.1-0.5 0-0.9-0.3-1.2-0.2-0.3-0.6-0.5-1-0.6l-13.5-1.2c-2.4-0.2-4.7 1.5-5.1 3.9-0.3 1.4 0.1 2.8 1 3.9 0.9 1.1 2.2 1.7 3.6 1.7l14.4 0.3c3 0 5.5-2.1 6.1-5 0.3-1.7-0.1-3.4-1.1-4.8-1.1-1.4-2.6-2.2-4.3-2.4l-8.7-0.8 0.1-1.7 8.7 0.8c2.2 0.2 4.2 1.3 5.5 3.1 1.4 1.7 1.9 4 1.5 6.1-0.7 3.8-4 6.5-7.8 6.4l-14.4-0.2c-1.9-0.1-3.7-0.9-4.9-2.4-1.2-1.4-1.7-3.2-1.5-5z"/><path class="e" d="m417.5 115.4q0.1-0.1 0.2-0.2c2.2-2.5 6.1-2.8 8.7-0.7l10.6 8.4c0.7 0.5 1.2 1.3 1.3 2.2 0 0.9-0.2 1.8-0.8 2.5-1.1 1.2-3 1.5-4.4 0.5l-5.2-3.8 1-1.4 5.2 3.8c0.7 0.4 1.6 0.3 2.1-0.3 0.3-0.3 0.4-0.7 0.3-1.1 0-0.4-0.2-0.8-0.5-1.1l-10.6-8.3c-2-1.6-4.8-1.4-6.5 0.4-0.9 1.1-1.4 2.5-1.2 3.9 0.1 1.3 0.9 2.6 2 3.4l12 8c2.4 1.7 5.7 1.3 7.8-0.8 1.2-1.3 1.8-2.9 1.7-4.6-0.2-1.8-1-3.3-2.3-4.4l-6.9-5.4 1.1-1.4 6.8 5.4c1.7 1.4 2.8 3.4 3 5.6 0.1 2.2-0.7 4.4-2.2 6-2.6 2.7-6.8 3.2-10 1.1l-11.9-8.1c-1.6-1.1-2.6-2.8-2.9-4.7-0.2-1.8 0.4-3.6 1.6-4.9z"/><path class="c" d="m708.8 38.4q0-0.1-0.1-0.2c-2-2.7-1.5-6.6 1.1-8.7l10.3-8.8c0.7-0.5 1.5-0.8 2.4-0.7 0.9 0.1 1.7 0.5 2.3 1.2 1 1.4 0.8 3.3-0.4 4.4l-4.7 4.4-1.2-1.3 4.7-4.3c0.6-0.6 0.7-1.5 0.2-2.1-0.3-0.3-0.6-0.6-1.1-0.6-0.4 0-0.8 0.1-1.1 0.4l-10.3 8.7c-1.9 1.6-2.3 4.4-0.8 6.4 0.8 1.2 2.1 1.9 3.5 2 1.4 0.1 2.7-0.4 3.7-1.4l10.3-10.1c2.1-2.1 2.4-5.3 0.7-7.8-1-1.4-2.5-2.3-4.2-2.5-1.7-0.3-3.4 0.2-4.7 1.3l-6.7 5.7-1.1-1.3 6.7-5.7c1.6-1.4 3.8-2 6-1.8 2.2 0.3 4.2 1.5 5.4 3.3 2.2 3.2 1.8 7.4-0.9 10.1l-10.3 10.1c-1.3 1.3-3.2 2-5.1 1.8-1.8-0.1-3.5-1-4.6-2.5z"/><path class="f" d="m416.3 150.3c0 0-0.9 2.1-0.4 5.1l-2.9 1.2-2.1-2.8c-0.4-0.5-1.2-0.4-1.4 0.3-0.8 2.8-1.9 9.1 3.4 14.1 0.4 0.5 1.2 0.2 1.3-0.4l0.6-3.5h3.2c0 0 0.6 2.6 2.3 4.4l6.8 0.5-5.4-22.4z"/><path class="g" d="m427.1 169.2c-8.5-7.7-5.4-22.4-5.4-22.4 4.9 10.2 5.4 22.4 5.4 22.4z"/><path class="c" d="m424.8 162.2c0 0 12-6.8 11.9-7.5-0.2-0.7-13.5-0.5-13.5-0.5-0.3 3 1.6 8 1.6 8z"/><path class="f" d="m757.8 143.6c0 0-0.9-1.6-2.8-2.5l0.5-2.3h2.6c0.5 0 0.8-0.6 0.5-1-1.3-1.7-4.6-5.2-9.9-4.2-0.5 0-0.7 0.6-0.3 1l1.8 1.9-1.5 1.8c0 0-1.8-0.7-3.5-0.6l-3.4 3.8 15.7 6.8z"/><path class="g" d="m741.8 141.5c8.3-1.6 15.7 6.8 15.7 6.8-8.2-1.6-15.7-6.8-15.7-6.8z"/><path class="c" d="m747 143.3c0 0-1.3 10.1-0.8 10.3 0.5 0.2 6.2-7.7 6.2-7.7-1.6-1.5-5.4-2.6-5.4-2.6z"/><path class="e" d="m558.7 47.9c0 0 0-1.7-1.2-3.5l1.6-1.6 2.2 1.3c0.4 0.2 0.9-0.1 0.8-0.6-0.2-2.1-1.2-6.6-6.1-8.4-0.4-0.2-0.9 0.2-0.8 0.7l0.6 2.4-2.1 0.9c0 0-1.1-1.5-2.7-2.3l-4.7 1.6 9.8 13.3z"/><path class="g" d="m546.3 38.4c7.8 2.7 9.8 13.3 9.8 13.3-6-5.3-9.8-13.3-9.8-13.3z"/><path class="c" d="m549.8 42.4c0 0-6.1 7.8-5.8 8.2 0.3 0.4 9-3.4 9-3.4-0.6-2.1-3.2-4.8-3.2-4.8z"/><path class="g" d="m456.2 209.1l-5.5 0.1-1.1 3z"/><path class="h" d="m454.7 190.5c-3.2 5.7-2.3 20.4-2.3 20.4l-31.9 16.7-7.5 1.3c-4.2-7.4 1-22.1 1.2-22.1 0.3-0.1 40.5-16.3 40.5-16.3z"/><path class="f" d="m347.1 201l49.9-14.4c19.1 0.2 60.6-0.2 60.6-0.2-11.1 5.6-36.7 17.8-36.7 17.8z"/><g style="opacity:.5;mix-blend-mode:soft-light"><path class="i" d="m396.8 188.5c-1 0.3-22.4 5.9-22.5 6.5-0.1 0.6 56.7 1.9 57.9 1.5 1.2-0.4 17.8-8.1 17.6-8.4-0.3-0.3-51.8 0.1-53 0.4z"/></g><g style="opacity:.5;mix-blend-mode:soft-light"><path class="i" d="m415.7 186.7l-41.8 6.6-10.9 3.1 62.2-9.8z"/><path class="i" d="m430.9 186.6l-73.3 11.3-10.5 3.1 6.9 0.3 84.7-14.8z"/></g><path class="j" d="m347.9 202.9c-6.5 4.9-2.4 18.2-2.4 18.2l70.4 7.8c-1.8-13.3 2.4-22.4 2.4-22.4z"/><path class="g" d="m348.7 204.8c2.3 8.1-2 14.6-2 14.6-4.9-10.9 2-14.6 2-14.6z"/><path class="d" d="m417.2 231.2l-72.9-8.4-0.5-0.8c0-0.1-5.6-10.8 2.7-20.4l0.6-0.6 73.8 3.2-0.1 3.7-72.1-3.1c-4.7 6-2.9 12.3-2 14.6l70.9 8.1z"/><path class="k" d="m371.7 210.8l6-0.2c-0.2 9.7-13.5 15.3-16.8 16.6-0.4 0.2-0.9 0.1-1.3-0.2l-2.1-1.5-7.9-1.3c-0.5-0.1-0.6-0.8-0.1-0.9 18.1-5.4 22.2-12.5 22.2-12.5z"/><path class="d" d="m420.8 207.9l36.4-16.6 0.4-4.9-36.7 17.8z"/><path class="d" d="m417.6 227.5l38.6-18.4-0.8 4-38.2 18.1z"/><path class="h" d="m416.8 212.9l-21.7 1.4 21.3 0.3-0.1 1.4-31.9 0.6 33 1.5z"/><g style="mix-blend-mode:multiply"><path class="l" d="m423.3 210.2l25.6-11.6"/><path class="l" d="m449.9 209.8l-28.5 13.6"/><path class="l" d="m420.9 219.1l24.5-11.3"/><path class="l" d="m447.4 202.5l-18.2 8.3"/><path class="m" d="m354.6 210.8l52.5-1.3"/><path class="m" d="m376.4 220.3l27.1 0.2"/><path class="m" d="m361 217.8l-9.4-0.1"/><path class="m" d="m353.3 214.4l7.9-0.1"/></g><path class="g" d="m807.7 206.2l-5.4 0.2-1.2 3z"/><path class="h" d="m806.3 187.7c-3.3 5.6-2.4 20.3-2.4 20.3l-31.9 16.8-7.5 1.2c-4.2-7.3 1-22 1.3-22 0.2-0.1 40.5-16.3 40.5-16.3z"/><path class="f" d="m698.6 198.1l50-14.3c19.1 0.2 60.6-0.3 60.6-0.3-11.2 5.7-36.7 17.9-36.7 17.9z"/><g style="opacity:.5;mix-blend-mode:soft-light"><path class="i" d="m748.4 185.7c-1 0.3-22.5 5.9-22.6 6.5 0 0.6 56.7 1.9 57.9 1.5 1.2-0.4 17.9-8.2 17.6-8.4-0.2-0.3-51.8 0.1-52.9 0.4z"/></g><g style="opacity:.5;mix-blend-mode:soft-light"><path class="i" d="m767.3 183.8l-41.8 6.6-11 3.2 62.2-9.8z"/><path class="i" d="m782.4 183.8l-73.2 11.3-10.6 3 6.9 0.3 84.8-14.7z"/></g><path class="j" d="m699.4 200c-6.5 5-2.4 18.3-2.4 18.3l70.4 7.8c-1.7-13.3 2.4-22.4 2.4-22.4z"/><path class="g" d="m700.3 201.9c2.2 8.2-2 14.7-2 14.7-4.9-11 2-14.7 2-14.7z"/><path class="d" d="m768.7 228.4l-72.9-8.4-0.4-0.8c-0.1-0.1-5.7-10.9 2.6-20.4l0.6-0.7 73.9 3.3-0.2 3.7-72-3.2c-4.8 6.1-2.9 12.4-2 14.7l70.9 8.1z"/><path class="k" d="m723.2 208l6.1-0.2c-0.3 9.6-13.6 15.3-16.8 16.6-0.5 0.1-1 0.1-1.3-0.2l-2.2-1.6-7.9-1.2c-0.5-0.1-0.5-0.8 0-0.9 18-5.5 22.1-12.5 22.1-12.5z"/><path class="d" d="m772.3 205.1l36.4-16.7 0.5-4.9-36.7 17.9z"/><path class="d" d="m769.2 224.7l38.5-18.5-0.7 4.1-38.3 18.1z"/><path class="h" d="m768.4 210.1l-21.8 1.3 21.3 0.4-0.1 1.4-31.8 0.6 33 1.5z"/><g style="mix-blend-mode:multiply"><path class="l" d="m774.8 207.4l25.7-11.6"/><path class="l" d="m801.4 207l-28.5 13.6"/><path class="l" d="m772.4 216.3l24.5-11.3"/><path class="l" d="m799 199.7l-18.2 8.2"/><path class="m" d="m706.2 208l52.4-1.4"/><path class="m" d="m727.9 217.5l27.2 0.2"/><path class="m" d="m712.5 215l-9.4-0.1"/><path class="m" d="m704.8 211.6l8-0.1"/></g><path fill-rule="evenodd" class="g" d="m454.4 45.8c-0.1 0.6-0.5 1.1-1 1.6-1.8 2-3.9 3.6-6 5.2-1.1 0.9-2.3 1.8-3.6 2.4-1.7 0.7-3.5 1-5.3 1.3-5.1 0.8-10.2 1.8-15.2 3.1q-3.1 0.8-6.3 1.7c-1.7 0.5-3.8 1-5.2-0.1-0.9-0.7-1.3-2-1.6-3.1q-1.6-6.4-2.4-13c-0.2-1.7-0.3-4.2 1.6-5.2 0.5-0.2 1.2-0.2 1.8-0.4 1.1-0.2 2.1-0.5 3.2-0.8q6.9-1.6 14-2.3 3.9-0.4 7.8-0.4c1.4 0 2.9 0 4.3 0.3 2.3 0.5 4.4 1.8 6.4 3.1q3 2 5.8 4.1c0.9 0.6 1.8 1.5 1.7 2.5zm-4-2.2c-0.4-0.2-0.9-0.3-1.4-0.2q-0.1 0-0.3 0 0 0.1-0.1 0.1 0 0-0.1 0c-0.4 0.2-0.8 0.5-1 0.9-0.3 0.5-0.3 1-0.2 1.5 0.2 1 1.1 1.7 2.1 1.8 1 0 1.9-0.7 2.1-1.7 0.2-1-0.3-2-1.1-2.4z"/><path class="n" d="m421 49.4c-0.4-0.9-1.1-1.6-1.9-2q-0.7-0.3-1.4-0.6-0.1 0-0.2-0.1-0.1 0-0.1 0-0.3-0.1-0.6-0.3-0.3-0.1-0.5-0.3c0 0-0.1 0-0.1-0.1q-0.1-0.1-0.3-0.2 0-0.1 0-0.1 0 0 0 0-0.1-0.1-0.1-0.2c-0.1 0-0.1-0.1-0.1-0.1q0-0.1 0-0.2-0.1-0.1-0.1-0.3c0 0 0 0.1 0 0q0-0.1 0-0.3 0-0.1 0-0.3 0-0.1 0-0.2c0 0.1 0 0.1 0 0q0-0.1 0-0.1 0-0.1 0-0.1 0 0 0.1 0c0 0 0-0.1 0-0.1q0.1 0 0.1 0 0 0 0 0 0 0 0 0c0.1 0 0.3-0.1 0.2 0q0.2-0.1 0.3 0c0 0 0.2 0 0.2 0q0.1 0 0.2 0 0 0.1 0 0.1 0.2 0 0.3 0.1 0 0 0 0 0.1 0.1 0.2 0.2 0 0 0 0c0 0 0.1 0.1 0.1 0.2q0.1 0.1 0.1 0.2 0 0 0 0 0.1 0.1 0.1 0.3 0 0 0 0c0 0 0 0.2 0 0.2 0.1 0.5 0.4 0.9 1 0.9 0.4 0 0.9-0.4 0.9-0.9-0.1-1.1-0.6-2-1.4-2.7-0.8-0.5-2-0.7-2.9-0.3-2.1 0.9-1.6 4-0.2 5.2 0.7 0.7 1.5 1 2.3 1.3 0.7 0.3 1.5 0.6 1.9 1.2 0.2 0.3 0.4 0.6 0.5 0.9q0.1 0.3 0.1 0.6 0.1 0.2 0.1 0.3 0 0.1 0 0.2c0 0.1 0 0.1 0 0.1 0.1 0.5 0.1 1 0 1.3q0 0.2-0.1 0.3 0 0.1-0.1 0.1 0 0.1-0.1 0.2c0 0-0.1 0.1-0.1 0.2q-0.1 0-0.2 0.1 0 0 0 0 0 0 0 0-0.1 0.1-0.2 0.1c0 0-0.1 0-0.2 0.1 0 0-0.1 0-0.2 0q-0.1-0.1-0.2-0.1 0 0 0 0-0.1 0-0.1 0-0.2-0.1-0.3-0.2c0 0-0.1-0.1-0.1-0.2q-0.1 0-0.1-0.1c-0.1 0-0.1-0.1-0.1-0.1q-0.1 0-0.1 0 0-0.1-0.1-0.2-0.1-0.2-0.2-0.3c0.1 0 0-0.2 0-0.3-0.2-0.5-0.3-1-0.4-1.5-0.1-0.5-0.7-0.8-1.1-0.6-0.6 0.1-0.8 0.6-0.7 1.1 0.2 0.9 0.4 1.9 0.9 2.7 0.5 0.7 1.3 1.4 2.2 1.6 1 0.1 2-0.2 2.7-1 0.6-0.8 0.9-1.8 0.8-2.9 0-0.9-0.3-1.9-0.7-2.8z"/><path fill-rule="evenodd" class="n" d="m428 53.1c0.2 0.5-0.1 1-0.6 1.1-0.5 0.2-1-0.2-1.1-0.6q-0.3-1.1-0.6-2.2-0.1 0-0.2 0c-0.4 0.1-0.9 0.2-1.3 0.3q0.3 1.1 0.7 2.2c0.1 0.5-0.2 1-0.7 1.2-0.5 0.1-1-0.2-1.1-0.7q-1-3-1.9-6.1c-0.5-1.7-0.9-3.5-0.3-5.2 0.3-0.9 0.8-1.9 1.8-2.1 1.1-0.2 1.8 0.9 2.2 1.7 0.9 1.5 1.3 3.2 1.7 4.9q0.7 2.7 1.4 5.5zm-2.8-3.5q-0.2-0.8-0.4-1.6c-0.4-1.4-0.7-2.9-1.4-4.1q-0.2-0.5-0.5-0.8 0 0 0 0-0.1 0.1-0.1 0.2-0.1 0.1-0.1 0.2c0 0-0.1 0.1-0.1 0.1q0 0.3-0.1 0.5 0 0.2 0 0.3 0 0 0 0.1c-0.2 1.5 0.4 3 0.9 4.5q0.1 0.5 0.2 0.9 0.8-0.2 1.6-0.3zm-2.6-6q0 0 0 0 0 0 0 0z"/><path class="n" d="m433.2 51.3q-1.3 0-2.6 0.4-1.6-5.6-2.9-11.2c-0.1-0.4-0.7-0.8-1.2-0.6-0.5 0.1-0.7 0.6-0.6 1.1q1.4 6.1 3.2 12.1c0.1 0.4 0.7 0.9 1.1 0.7q0.8-0.4 1.5-0.5 0.7-0.1 1.5-0.1c0.5 0 0.9-0.5 0.9-1 0-0.5-0.4-0.9-0.9-0.9z"/><path class="n" d="m438.7 51c-0.2-0.5-0.7-0.9-1.2-0.7-0.4 0.2-0.8 0.3-1.2 0.3 0 0 0 0-0.1 0 0.1 0-0.1-0.1-0.1-0.1q0 0 0 0 0 0 0 0-0.1-0.1-0.1-0.2 0 0 0 0 0 0 0 0c-0.4-1-0.8-2-1.1-3q0 0 0-0.1 0 0 0.1 0c0.5 0 1-0.4 0.9-0.9 0-0.5-0.4-1-0.9-1q-0.4 0-0.7 0.1-0.7-2.1-1.2-4.1 0-0.1 0-0.1 0.9 0 1.8-0.1c0.5 0 1-0.4 1-0.9-0.1-0.5-0.4-0.9-1-0.9q-0.9 0-1.9 0c-0.7 0.1-1.4 0.3-1.7 1-0.2 0.6 0 1.3 0.1 1.9q0.3 0.9 0.5 1.8 0.5 1.8 1.1 3.5c0.4 1.2 0.8 2.5 1.3 3.6 0.3 0.7 0.8 1.1 1.5 1.3 0.8 0.2 1.5 0 2.2-0.3 0.5-0.2 0.9-0.6 0.7-1.1z"/><path class="o" d="m449.7 45.3c5.5-0.3 11-0.6 16.3 0.7 5.2 1.4 10.3 4.7 12.4 9.7 1 2.5 1.2 5.3 0.3 7.8-1.3 3.5-4.9 6.1-8.6 6.1-3.8 0-7.4-2.6-8.7-6.1-1.3-3.5-0.1-7.8 2.7-10.2 2.2-1.8 5.2-2.5 8.1-2.6 8.2-0.2 16.1 4.6 20.1 11.7 4.1 7.1 4.2 16.1 0.9 23.6"/><path class="g" d="m593.9 213.3c0 6.9-31.2 12.5-69.7 12.5-38.4 0-69.6-5.6-69.6-12.5 0-7 31.2-12.6 69.6-12.6 38.5 0 69.7 5.6 69.7 12.6z"/><path class="f" d="m583 187.5l-79.1 7.1-14.7-7.4-7.4-3.8-2-1.1-4.4-2.2-6.9-3.6 17.8-1.6 6.1-0.6 5.3-0.5 7.4-0.6 31.6-2.9z"/><path class="d" d="m468.5 176.5c-9.3 10.6-4 25.1-4 25.1l40.3 22.4-1-29.4z"/><path class="n" d="m471.9 179.6c-8.8 12.3-3.3 22.9-3.3 22.9l5.9 3.3c-3-15.3 4.6-22.4 4.6-22.4z"/><path class="g" d="m577.2 197.3l3.6 1.4-3.2 3.8 3.5 1.1-2.9 8.3 3.5 0.6-0.7 0.7-7.1 0.5-6.7-15.8 7.5-2z"/><path class="p" d="m577.1 212.7l4.6-0.7-0.6-8.4-5-0.3 5-0.4-0.3-4.2-10.1 0.1 10-1.1-0.5-7.9c0 0-50 5.2-75.1 6.9 0 0-9.5 11.3 0.6 25.1l76.3-5-0.3-4.3z"/><path class="g" d="m506.4 198.7c3.2 14.1 0.4 20.9 0.4 20.9-10.8-13-0.4-20.9-0.4-20.9z"/><path class="d" d="m585.2 218.7l-80.4 5.3-0.7-0.8c-0.2-0.1-2.8-3.2-4.2-8.1-1.2-4.6-1.7-11.7 3.4-19.6l0.5-0.9 79.2-7.1 0.4 4.3-77 6.9c-5.9 10.1-1.4 18.3 0.4 20.9l78.1-5.1z"/><path class="q" d="m503 195.9c-8.3 16.5-0.1 25.8-0.1 25.8"/><path class="m" d="m509.6 202l65.5-4.8"/><path class="m" d="m510.8 214.9l64.6-3.2"/><path class="m" d="m573.1 201.6l-59.7 4.7"/><path class="m" d="m521.7 210.6l47.6-3"/><path class="c" d="m539.5 199.5c0.7 2 1.8 7.9 1.8 7.9l4-2.3 5.2 1.7c-0.8-4.3-1.8-7.9-1.8-7.9z"/><path fill-rule="evenodd" class="n" d="m493.2 183.1q-0.1 0.1-0.1 0l-10-5q-0.1-0.1-0.1-0.2 0-0.2 0.1-0.2l50.6-4.9q0.1 0 0.1 0l10.8 4.6q0.1 0.1 0.1 0.2 0 0.2-0.2 0.2l-51.3 5.3q0 0 0 0zm-9.3-5.1l9.3 4.7 50.5-5.2-10-4.3z"/><g style="opacity:.5;mix-blend-mode:soft-light"><path class="i" d="m497.7 173.8l-15.9 9.6c-6.4 7.8-8.2 23.2-8.2 23.2l1.9 1.1 6 3.4c0.7-12.8 7.7-23.9 7.7-23.9l15.9-14z"/><path class="i" d="m479.8 182.3l12.6-8-6.1 0.6-10.9 5.2c0 0-10 9.6-9.5 22.3l5.8 3.2c0 0 2.2-17.1 8.1-23.3z"/></g><path class="g" d="m575.8 174.4h-4.2l1.1 1.8z"/><path class="h" d="m536.4 190.8l37.7-15.2c-1.6-8 0.7-21.4 0.7-21.4l-35.1 11.8c0 0-6.6 14.4-3.3 24.8z"/><path class="p" d="m469.9 159.6l70 7.2c-4.2 8.2-3.8 23.7-3.8 23.7l-68.9-6c-3.2-12.7 2.7-24.9 2.7-24.9z"/><path class="g" d="m470.6 160.8c1 12.1-2.5 22.7-2.5 22.7-3.1-14.2 2.5-22.7 2.5-22.7z"/><path class="c" d="m577.7 154.4l-18.2 6-5.6 1.8-1.2 0.5-10 3.2-8.7-0.9-64.8-6.6c0 0 31.1-6.9 43.5-9.6 1.5-0.3 2.7-0.6 3.6-0.8 7.8 0.4 16.8 1.2 25.6 2.1q1.7 0.2 3.4 0.4c3.3 0.3 6.4 0.6 9.4 1 13 1.5 23 2.9 23 2.9z"/><g style="opacity:.5;mix-blend-mode:soft-light"><path class="i" d="m552.7 162.7l-10 3.2-8.7-0.9c-3.3-4-10.2-11-21.3-16.2 1.5-0.3 2.7-0.6 3.6-0.8 7.8 0.4 16.8 1.2 25.6 2.1 3.6 2.5 8.5 6.8 10.8 12.6z"/><path class="i" d="m559.5 160.4l-5.6 1.8c-1.4-2.6-4.5-8.1-8.6-11.7 3.3 0.3 6.4 0.6 9.4 1 1.6 1.9 3.6 5 4.8 8.9z"/></g><path class="n" d="m538.7 191.8l-72.4-6.2-0.2-0.7c-0.1-0.5-3.8-12.3 2.7-25.8l0.4-0.7 73.5 7.5-0.2 2.3-71.9-7.4c-4.8 10.6-3.1 20-2.5 22.7l70.8 6.1z"/><path class="r" d="m470.8 158.5l71.2 7.3"/><path class="c" d="m542.5 168.2l34.9-11.2 0.3-2.6-35 11.5z"/><path class="c" d="m538.9 189.6l36.9-15.2-0.3 2.2-36.8 15.2z"/><path class="s" d="m473.4 165.4l58.4 6.3"/><path class="s" d="m471.7 181l56.6 4.7"/><path class="s" d="m528.3 180.6l-52.5-3.8"/><path class="s" d="m473.4 170.9l44.6 3.8"/><path class="t" d="m540.9 184.7l27.6-9.3"/><path class="t" d="m570.8 162.4l-27.2 8.4"/><path class="t" d="m546.4 174l20.7-6"/><path class="t" d="m567.9 171.4l-26.7 8.4"/><path class="g" d="m515.6 116.4l0.1 0.8 7.5-0.4 0.1-1.3z"/><path class="k" d="m570.8 124.1l-55 19.2-0.3 0.2-10.4-2.5-5.4-1.4-2.5-0.6-4.2-1-25.1-6.1c0 0 12.3-2.5 27.4-7.5q2.4-0.7 4.9-1.6 1.1-0.4 2.2-0.8c3.2-1.2 6.5-2.4 9.7-3.8q3.8-1.5 7.4-3.2c26.2 6.2 51.3 9.1 51.3 9.1z"/><path class="e" d="m515.6 121c-8.1 4.1-22.2 8.2-22.2 8.2 3.1 2 10.4 3.9 10.4 3.9 10.3-3.5 20.4-9 20.4-9-3.5-1.3-8.6-3.1-8.6-3.1z"/><path class="u" d="m521 165.9l-11.9-3.1-4-1-4.8-1.3-3.2-0.8-26.6-6.8c0 0-6-8.5-2.6-21l25.2 4.9 4 0.8 2.8 0.6 5.2 1 10.2 2 0.5 2.1z"/><g style="opacity:.5;mix-blend-mode:soft-light"><path fill-rule="evenodd" class="i" d="m513.5 161.4q-0.2 0.1-0.3 0.1-0.1 0-0.1 0l-39.7-9.6q-0.2 0-0.3-0.1c-4.3-6.7-2.5-15.7-2.4-16.1q0-0.1 0.2-0.2 0.1-0.1 0.2-0.1c8.1 1.7 38.8 7.6 39.1 7.7 0.2 0 0.3 0.2 0.3 0.4-0.4 9.5 3 17.4 3 17.4 0.1 0.2 0.1 0.3 0 0.5zm-1-0.8c-0.8-2.2-3.1-8.9-2.8-16.8-3.3-0.7-30.2-5.9-38.3-7.6-0.3 1.8-1.2 9.4 2.3 15z"/><path class="i" d="m505.8 145.6c0-0.2-0.1-0.4-0.4-0.4-0.2 0-0.3 0.2-0.3 0.4 0 5.5 2.3 11.9 2.4 12.1 0.1 0.2 0.3 0.3 0.4 0.3q0.1 0 0.2 0c0.2-0.1 0.3-0.3 0.2-0.5 0-0.1-2.5-6.6-2.5-11.9z"/><path class="i" d="m502.6 144.8c0-0.2-0.1-0.3-0.4-0.3-0.2 0-0.4 0.1-0.4 0.3 0 5.5 2.4 11.9 2.5 12.2 0.1 0.2 0.2 0.2 0.4 0.2q0.1 0 0.1 0c0.2-0.1 0.3-0.3 0.3-0.5 0 0-2.5-6.5-2.5-11.9z"/><path fill-rule="evenodd" class="i" d="m499.7 155.1q0 0.2-0.1 0.3-0.1 0.2-0.3 0.2 0 0-0.1 0l-23.5-5.2q-0.2 0-0.3-0.2c-2.3-5-2-10.5-2-10.7q0.1-0.2 0.2-0.3 0.1-0.1 0.3-0.1l24 4.9c0.2 0 0.3 0.2 0.3 0.3-0.2 5.2 1.5 10.7 1.5 10.8zm-2.3-10.3l-9.9 2.6 11.1 6.8c-0.4-1.9-1.2-5.7-1.2-9.4zm-11 2.9l-8.9 2.3 20 4.4zm9.6-3.3l-20.3-4.1 10.8 6.6zm-20 5.2l9.5-2.5-11.3-6.8c0 1.6 0.2 5.6 1.8 9.3z"/></g><path class="g" d="m572.8 146.3l-6.4-0.2-1.6 2.8z"/><path class="g" d="m568.4 143.6l-4-0.7 3.7-3.6-2.9-0.2 2.8-3.9-2.4-0.4-10.8 8.4-9.1 6.2 22.2-4.8z"/><path class="p" d="m568.8 149.3l-47.4 15.1c-6-7.4-4.8-22.1-4.8-22.1l51.4-15c-0.1 2.1-0.1 4.6-0.1 7.1l-2.9 1.2 3-0.4q0 1.6 0.1 3.2l-10.7 3.5 10.7-2.6q0.1 1.5 0.2 2.9l-19.7 6.2 19.8-4.8c0.2 3.4 0.4 5.7 0.4 5.7z"/><path class="g" d="m517.8 143.3c4.8 11.8 4 19.5 4 19.5-6.7-6.4-4-19.5-4-19.5z"/><path class="s" d="m563.7 133.1l-36.7 10.9"/><path class="s" d="m561.2 138.4l-38.8 12.5"/><path class="s" d="m528.2 152.9l27.1-7.8"/><path class="s" d="m563.1 147l-38.5 11"/><path class="e" d="m521 165.9l-0.6-0.6c-0.3-0.3-7.6-7.7-5.2-23.2l0.1-0.9 55.5-17.1 0.1 2.8-53.1 16.4c-1.5 11.2 2.5 17.6 4 19.5l51-16.5 0.2 3.3z"/><path class="e" d="m510.1 133.7l-0.1-0.4c0.1 0 9-3.1 15-7.6l0.2 0.3c-6 4.5-15 7.7-15.1 7.7z"/><path class="e" d="m512.2 134.9l-0.1-0.4c0 0 9-3.1 15-7.6l0.2 0.3c-6 4.5-15 7.7-15.1 7.7z"/><g style="opacity:.5;mix-blend-mode:soft-light"><path class="i" d="m505.1 139.2c4.4-8.4 6.3-16.8 7-21-3.2 1.4-6.5 2.6-9.7 3.8 0.3 8.2-2.5 16.2-2.5 16.2q-0.1 0.7-0.2 1.4c-0.2 6.8 4 18.6 5.4 22.2l4 1c-3.3-8.8-3.9-18.1-4-21.8 0-1.2 0-1.8 0-1.8z"/><path class="i" d="m497.1 137.6q0-0.1 0-0.1c2.1-4.9 2.8-11.3 3.1-14.7q-2.5 0.9-4.9 1.6c0.3 6-2.2 12.2-2.2 12.4q-0.1 0-0.1 0 0 0.6 0 1.2c-0.2 9.2 4.1 21.7 4.1 21.7l3.2 0.9v-0.1c-2.5-8.1-3-17.8-3.1-21.5q-0.1-1-0.1-1.4z"/></g><path class="n" d="m515.6 116.4l3.8-1.8 3.9 0.9-0.7 0.7c-3.5-0.9-5.7 0.6-5.7 0.6z"/><path class="n" d="m564.1 122.6l8.5 1.1-10.5 3.2-2-0.3c5.7-1.6 2.7-3.3 2.7-3.3z"/><path class="c" d="m572.6 123.7l-0.6 3.6-9.6 2.8-0.3-3.2"/><path class="g" d="m479.7 120.8h3.7l-1 1.6z"/><path class="h" d="m514.8 135.4l-33.6-13.6c1.4-7.1-0.6-19-0.6-19l31.2 10.5c0 0 5.9 12.8 3 22.1z"/><path class="p" d="m574 107.6l-62.4 6.4c3.8 7.3 3.4 21.1 3.4 21.1l61.3-5.3c2.9-11.3-2.3-22.2-2.3-22.2z"/><path class="g" d="m573.3 108.7c-0.9 10.8 2.2 20.2 2.2 20.2 2.9-12.6-2.2-20.2-2.2-20.2z"/><path class="n" d="m478 103l16.2 5.3 5 1.7 1.1 0.3 8.8 2.9 7.8-0.8 57.7-5.9c0 0-27.7-6.1-38.7-8.5-1.4-0.3-2.5-0.5-3.2-0.7-7 0.4-15 1.1-22.8 1.9q-1.6 0.1-3.1 0.3c-2.9 0.3-5.7 0.6-8.3 0.9-11.6 1.4-20.5 2.6-20.5 2.6z"/><g style="opacity:.5;mix-blend-mode:soft-light"><path class="i" d="m500.3 110.3l8.8 2.9 7.8-0.8c2.9-3.5 9.1-9.8 19-14.4-1.4-0.3-2.5-0.5-3.2-0.7-7 0.4-15 1.1-22.8 1.9-3.2 2.2-7.6 6-9.6 11.1z"/><path class="i" d="m494.2 108.3l5 1.7c1.2-2.4 4-7.3 7.6-10.5-2.9 0.3-5.7 0.6-8.3 0.9-1.4 1.7-3.2 4.4-4.3 7.9z"/></g><path class="n" d="m512.7 136.3l64.4-5.5 0.2-0.7c0.2-0.4 3.4-10.9-2.4-22.9l-0.3-0.7-65.5 6.7 0.2 2.1 64-6.6c4.3 9.4 2.8 17.8 2.2 20.2l-63 5.4z"/><path class="r" d="m573.2 106.7l-63.4 6.5"/><path class="c" d="m509.3 115.3l-31.1-10-0.2-2.3 31.1 10.2z"/><path class="c" d="m512.5 134.3l-32.8-13.5 0.2 2 32.8 13.5z"/><path class="s" d="m570.8 112.8l-51.9 5.6"/><path class="s" d="m572.3 126.7l-50.4 4.1"/><path class="s" d="m521.9 126.4l46.8-3.4"/><path class="s" d="m570.8 117.7l-39.6 3.3"/><path class="t" d="m510.7 129.9l-24.5-8.2"/><path class="t" d="m484.1 110.1l24.3 7.5"/><path class="t" d="m505.8 120.4l-18.4-5.3"/><path class="t" d="m486.7 118.1l23.8 7.5"/><path class="g" d="m578.4 94.9l-5.6 0.1-1.2 2.8z"/><path class="h" d="m577.1 77.5c-3.3 5.3-2.6 19.1-2.6 19.1l-32.4 15.3-7.7 1.1c-4.1-6.9 1.3-20.6 1.6-20.7 0.3 0 41.1-14.8 41.1-14.8z"/><path class="f" d="m468.2 86.1l50.6-12.9c19.3 0.4 61.3 0.4 61.3 0.4-11.3 5.2-37.3 16.4-37.3 16.4z"/><g style="opacity:.5;mix-blend-mode:soft-light"><path class="i" d="m518.6 75c-1 0.2-22.8 5.3-22.8 5.8-0.1 0.6 57.2 2.5 58.4 2.1 1.3-0.3 18.2-7.5 17.9-7.7-0.2-0.3-52.3-0.5-53.5-0.2z"/></g><g style="opacity:.5;mix-blend-mode:soft-light"><path class="i" d="m537.7 73.5l-42.3 5.7-11.1 2.8 63-8.5z"/><path class="i" d="m553 73.6l-74.1 9.8-10.7 2.7 6.9 0.4 85.9-12.9z"/></g><path class="j" d="m469 87.9c-6.7 4.6-2.7 17.1-2.7 17.1l71.1 8.1c-1.6-12.5 2.7-21 2.7-21z"/><path class="g" d="m469.8 89.7c2.2 7.7-2.2 13.7-2.2 13.7-4.8-10.3 2.2-13.7 2.2-13.7z"/><path class="d" d="m538.7 115.3l-73.6-8.7-0.5-0.8c0-0.1-5.6-10.2 3-19.1l0.6-0.6 74.6 3.9-0.2 3.5-72.8-3.8c-4.9 5.6-3.1 11.6-2.2 13.7l71.6 8.4z"/><path class="k" d="m492.9 95.6l6.1-0.1c-0.4 9.1-13.8 14.2-17.1 15.4-0.5 0.1-1 0.1-1.4-0.2l-2.1-1.5-8-1.3c-0.5 0-0.5-0.7 0-0.8 18.3-4.9 22.5-11.5 22.5-11.5z"/><path class="d" d="m542.6 93.5l36.9-15.2 0.6-4.7-37.3 16.4z"/><path class="d" d="m539.2 111.8l39.2-16.9-0.9 3.8-38.8 16.6z"/><path class="h" d="m538.5 98.1l-22 1 21.6 0.6-0.2 1.3-32.2 0.2 33.4 1.8z"/><g style="mix-blend-mode:multiply"><path class="l" d="m545.1 95.6l26.1-10.5"/><path class="l" d="m572 95.6l-29 12.4"/><path class="l" d="m542.5 104l24.9-10.4"/><path class="l" d="m569.6 88.7l-18.5 7.5"/><path class="m" d="m475.7 95.5l53-0.7"/><path class="m" d="m497.5 104.6l27.5 0.5"/><path class="m" d="m482 102.1l-9.5-0.2"/><path class="m" d="m474.3 98.8h8"/></g><path fill-rule="evenodd" class="g" d="m742.1 50.2c-0.2-0.6 0-1.3 0.1-1.9 0.8-2.5 2-4.9 3.2-7.3 0.6-1.3 1.3-2.6 2.2-3.7 1.2-1.4 2.7-2.4 4.3-3.5 4.2-2.9 8.3-6 12.2-9.4q2.6-2.1 5-4.3c1.3-1.2 2.9-2.5 4.7-2.2 1.2 0.3 2 1.3 2.8 2.2q4.2 5.1 7.8 10.6c1 1.5 2.1 3.7 0.8 5.4-0.3 0.5-0.9 0.7-1.4 1.1-0.9 0.7-1.7 1.5-2.6 2.2q-5.5 4.5-11.5 8.1-3.4 2-6.9 3.8c-1.3 0.6-2.6 1.3-4 1.6-2.3 0.6-4.8 0.3-7.1 0q-3.6-0.5-7.1-1.2c-1-0.2-2.1-0.5-2.5-1.5zm4.6 0.2c0.4 0 0.9-0.1 1.3-0.3q0.1-0.1 0.2-0.2 0.1-0.1 0.1-0.1 0-0.1 0.1-0.1c0.3-0.3 0.5-0.7 0.5-1.2 0-0.6-0.2-1.1-0.5-1.5-0.6-0.8-1.7-1-2.6-0.7-0.9 0.4-1.5 1.5-1.2 2.5 0.2 0.9 1.1 1.6 2.1 1.6z"/><path class="n" d="m763.8 40c-0.7-0.6-1.7-0.8-2.6-0.8q-0.7 0.1-1.5 0.2-0.1 0-0.2 0-0.1 0-0.2 0-0.3 0.1-0.6 0.1-0.3 0-0.5-0.1c0 0-0.2 0-0.2 0q-0.2 0-0.3-0.1-0.1 0-0.1 0 0 0 0 0-0.2-0.1-0.3-0.2c0 0 0 0 0 0q-0.1-0.1-0.2-0.1-0.1-0.2-0.2-0.3c0 0 0.1 0.1 0 0q-0.1-0.1-0.1-0.2-0.1-0.2-0.2-0.3 0-0.1-0.1-0.1c0.1 0.1 0 0 0-0.1q0 0 0-0.1 0 0 0-0.1 0 0 0 0c0 0 0-0.1 0-0.1q0 0 0 0 0 0 0.1 0 0 0 0-0.1c0 0 0.2-0.2 0.1-0.1q0.1-0.1 0.3-0.1c0 0 0.2-0.1 0.2-0.1q0.1 0 0.1 0 0.1 0 0.1 0 0.1 0 0.3 0 0 0 0 0 0.1 0 0.2 0 0.1 0 0.1 0.1c0 0 0.1 0 0.1 0q0.2 0.1 0.3 0.2 0 0 0 0 0.1 0.1 0.2 0.1 0 0.1 0 0.1c0 0 0.1 0.1 0.1 0.1 0.2 0.4 0.8 0.6 1.3 0.4 0.4-0.3 0.6-0.9 0.3-1.3-0.6-0.9-1.5-1.5-2.5-1.6-1-0.1-2.1 0.3-2.7 1.1-1.4 1.8 0.5 4.3 2.4 4.7 0.9 0.2 1.8 0.1 2.7 0 0.7-0.1 1.6-0.2 2.2 0 0.3 0.2 0.6 0.4 0.8 0.6q0.3 0.3 0.5 0.5 0.1 0.1 0.2 0.2 0 0.1 0.1 0.2c0 0 0.1 0.1 0.1 0.1 0.2 0.4 0.5 0.8 0.5 1.1q0.1 0.2 0.1 0.3 0 0.1 0 0.2 0 0.1 0 0.2c0-0.1 0 0.1 0 0.2q-0.1 0.1-0.1 0.1 0 0 0 0 0 0 0 0.1-0.1 0.1-0.1 0.2c0 0-0.1 0-0.2 0.1 0 0-0.1 0.1-0.1 0.1q-0.1 0-0.2 0-0.1 0.1-0.1 0.1-0.1 0-0.1 0-0.2 0-0.3 0c0 0-0.2-0.1-0.2-0.1q-0.1 0-0.2 0c0 0-0.1-0.1-0.1-0.1q-0.1 0-0.1 0-0.1-0.1-0.1-0.1-0.2-0.1-0.4-0.2c0.1 0-0.1-0.2-0.1-0.2-0.4-0.3-0.8-0.7-1.1-1.1-0.3-0.4-1-0.4-1.3 0-0.4 0.4-0.4 0.9 0 1.3 0.6 0.7 1.2 1.4 2.1 1.9 0.8 0.4 1.8 0.6 2.7 0.3 0.9-0.4 1.6-1.2 1.8-2.2 0.2-1-0.1-2-0.6-2.9-0.6-0.8-1.3-1.6-2.1-2.1z"/><path fill-rule="evenodd" class="n" d="m771.8 39.7c0.3 0.4 0.3 1 0 1.4-0.4 0.3-1 0.3-1.3-0.1q-0.8-0.8-1.6-1.6-0.1 0.1-0.2 0.2c-0.3 0.2-0.6 0.5-1 0.8q0.9 0.8 1.7 1.6c0.4 0.4 0.4 1 0 1.3-0.3 0.4-0.9 0.4-1.3 0q-2.3-2.2-4.6-4.4c-1.3-1.2-2.6-2.6-2.9-4.4-0.1-0.8-0.1-2 0.6-2.6 0.9-0.7 2-0.1 2.8 0.4 1.5 0.9 2.7 2.1 3.8 3.4q2 2 4 4zm-4.2-1.6q-0.6-0.6-1.2-1.2c-1-1.1-2-2.2-3.2-2.9q-0.4-0.3-0.8-0.5 0 0 0 0 0 0.2 0 0.3 0 0.1 0 0.2c0 0 0 0.2 0 0.2q0.1 0.2 0.2 0.4 0 0.2 0.1 0.3 0 0 0 0.1c0.6 1.4 1.8 2.4 3 3.5q0.3 0.3 0.7 0.7 0.6-0.6 1.2-1.1z"/><path class="n" d="m775.4 35.7q-1.2 0.6-2.1 1.6-4.1-4.1-8-8.3c-0.3-0.4-1-0.4-1.3 0-0.4 0.4-0.4 0.9 0 1.3q4.2 4.6 8.7 9c0.3 0.3 1 0.4 1.3 0q0.5-0.7 1.1-1.2 0.5-0.4 1.2-0.8c0.4-0.2 0.6-0.8 0.4-1.3-0.3-0.4-0.9-0.6-1.3-0.3z"/><path class="n" d="m780 32.7c-0.3-0.3-1-0.4-1.3 0-0.3 0.3-0.5 0.7-0.9 0.8 0 0-0.1 0.1-0.1 0.1 0 0-0.1 0-0.2 0q0 0 0 0 0-0.1 0-0.1-0.1 0-0.2-0.1 0 0 0 0 0 0 0 0c-0.8-0.6-1.6-1.3-2.4-2q0-0.1-0.1-0.1 0.1 0 0.2-0.1c0.4-0.2 0.6-0.8 0.3-1.2-0.2-0.5-0.8-0.7-1.2-0.4q-0.4 0.2-0.7 0.4-1.5-1.5-3-3 0-0.1 0-0.1 0.7-0.5 1.5-0.9c0.4-0.3 0.7-0.9 0.4-1.3-0.3-0.4-0.8-0.6-1.3-0.3q-0.8 0.4-1.7 1c-0.5 0.3-1 0.9-0.9 1.6 0.1 0.7 0.6 1.1 1 1.6q0.6 0.7 1.3 1.3 1.3 1.3 2.7 2.6c0.9 0.8 1.9 1.7 2.9 2.5 0.5 0.4 1.3 0.5 1.9 0.3 0.8-0.2 1.3-0.7 1.8-1.3 0.3-0.4 0.4-1 0-1.3z"/><path class="o" d="m746.5 49c-5.7 2.2-9.9 7.8-10.7 13.9-0.8 6.1 1.5 12.4 5.9 16.7 4.4 4.3 10.6 6.5 16.8 6.3 2.7-0.1 5.6-0.7 7.7-2.5 3.2-2.6 3.9-7.6 2.2-11.4-1.7-3.7-5.4-6.4-9.4-7.5-4-1.1-8.3-0.9-12.4-0.1-7.5 1.3-14.9 4.6-20.2 10-5.4 5.5-8.4 13.5-7 21"/><path class="g" d="m553.1 244.1c0 8.7 47.3 15.8 105.7 15.8 58.4 0 105.7-7.1 105.7-15.8 0-8.7-47.3-15.7-105.7-15.7-58.4 0-105.7 7-105.7 15.7z"/><path class="g" d="m580.8 229.5h6.4l-1.7 2.7z"/><path class="h" d="m642.1 255l-58.7-23.8c2.4-12.4-1.1-33.2-1.1-33.2l54.6 18.4c0 0 10.3 22.4 5.2 38.6z"/><path class="p" d="m745.7 206.4l-109.1 11.2c6.5 12.7 6 36.9 6 36.9l107.2-9.3c5-19.8-4.1-38.8-4.1-38.8z"/><path class="g" d="m744.6 208.3c-1.7 18.8 3.8 35.2 3.8 35.2 5-22-3.8-35.2-3.8-35.2z"/><path class="c" d="m577.7 198.3l28.3 9.3 8.8 2.9 2 0.6 15.4 5.1 13.6-1.4 101-10.3c0 0-48.5-10.7-67.8-14.9-2.3-0.5-4.2-1-5.6-1.2-12.1 0.5-26.2 1.8-39.9 3.2q-2.7 0.2-5.4 0.5c-5 0.6-9.9 1.1-14.5 1.6-20.3 2.4-35.9 4.6-35.9 4.6z"/><g style="opacity:.5;mix-blend-mode:soft-light"><path class="i" d="m616.8 211.1l15.4 5.1 13.6-1.4c5.2-6.2 16-17.2 33.2-25.2-2.3-0.5-4.2-1-5.6-1.2-12.1 0.5-26.2 1.8-39.9 3.2-5.6 3.9-13.2 10.6-16.7 19.5z"/><path class="i" d="m606 207.6l8.8 2.9c2.1-4.2 7-12.7 13.3-18.4-5 0.6-9.9 1.1-14.5 1.6-2.5 3.1-5.7 7.8-7.6 13.9z"/></g><path class="n" d="m638.5 256.6l112.7-9.7 0.3-1.2c0.3-0.7 6-19-4.2-40.1l-0.5-1.1-114.6 11.7 0.4 3.5 112-11.4c7.5 16.4 4.8 31.1 3.8 35.2l-110.2 9.5z"/><path class="v" d="m744.3 204.7l-110.9 11.4"/><path class="c" d="m632.6 219.7l-54.4-17.4-0.5-4 54.5 17.9z"/><path class="c" d="m638.2 253l-57.4-23.5 0.3 3.4 57.4 23.7z"/><path class="w" d="m740.2 215.4l-91 9.8"/><path class="w" d="m742.8 239.8l-88.1 7.2"/><path class="w" d="m654.7 239.1l81.8-5.9"/><path class="w" d="m740.2 224l-69.4 5.8"/><path class="x" d="m635.1 245.4l-43-14.4"/><path class="x" d="m588.4 210.7l42.5 13.1"/><path class="x" d="m626.5 228.8l-32.3-9.3"/><path class="x" d="m593 224.7l41.6 13.2"/><path class="f" d="m587.6 170l99.3 8.9 18.4-9.4 9.2-4.7 2.6-1.3 5.5-2.8 8.8-4.5-22.4-2.1-7.7-0.7-6.6-0.6-9.4-0.8-39.5-3.7z"/><path class="d" d="m731.4 156.2c11.6 13.3 4.9 31.5 4.9 31.5l-50.5 28.1 1.1-36.9z"/><path class="n" d="m727.1 160.1c11 15.4 4.1 28.7 4.1 28.7l-7.4 4.1c3.7-19.2-5.9-28.1-5.9-28.1z"/><path class="g" d="m594.9 182.2l-4.5 1.8 4 4.8-4.4 1.4 3.6 10.4-4.4 0.7 0.9 0.9 8.9 0.6 8.5-19.7-9.4-2.6z"/><path class="p" d="m595 201.5l-5.7-0.8 0.7-10.5 6.3-0.3-6.3-0.6 0.4-5.3 12.6 0.1-12.5-1.3 0.6-9.9c0 0 62.8 6.5 94.2 8.6 0 0 11.9 14.2-0.7 31.5l-95.8-6.3 0.4-5.4z"/><path class="g" d="m683.7 184c-3.9 17.7-0.4 26.3-0.4 26.3 13.4-16.3 0.4-26.3 0.4-26.3z"/><path class="d" d="m584.9 209.2l100.9 6.6 0.9-1c0.1-0.2 3.4-4 5.1-10.2 1.6-5.7 2.2-14.6-4.1-24.5l-0.8-1.2-99.3-8.9-0.5 5.3 96.6 8.7c7.5 12.8 1.8 23-0.4 26.3l-98.1-6.5z"/><path class="y" d="m688 180.5c10.4 20.7 0.1 32.3 0.1 32.3"/><path class="z" d="m679.7 188.1l-82.1-6"/><path class="z" d="m678.2 204.3l-81-4"/><path class="z" d="m600.1 187.7l74.9 5.9"/><path class="z" d="m664.5 199l-59.7-3.8"/><path class="c" d="m642.2 185.1c-0.8 2.5-2.3 9.8-2.3 9.8l-4.9-2.8-6.6 2c1-5.4 2.2-9.8 2.2-9.8z"/><path fill-rule="evenodd" class="n" d="m700.3 164.5l-64.4-6.7c-0.1 0-0.2-0.1-0.2-0.2 0-0.2 0-0.3 0.1-0.3l13.5-5.8q0.1 0 0.1 0l63.5 6.2c0.1 0 0.2 0.1 0.2 0.2 0.1 0.1 0 0.2-0.1 0.3l-12.6 6.3q0 0-0.1 0 0 0 0 0zm-50.8-12.5l-12.6 5.4 63.4 6.6 11.7-5.9z"/><g style="opacity:.5;mix-blend-mode:soft-light"><path class="i" d="m694.7 152.8l19.8 12c8.2 9.8 10.4 29.2 10.4 29.2l-2.4 1.3-7.6 4.3c-0.7-16.1-9.6-30.1-9.6-30.1l-20-17.5z"/><path class="i" d="m717.1 163.5l-15.8-10.1 7.7 0.7 13.6 6.6h0.1c0 0 12.4 12.1 11.8 28l-7.3 4c0 0-2.6-21.5-10.1-29.2z"/></g><path class="g" d="m731.6 149.1h-5.9l1.6 2.5z"/><path class="h" d="m675.7 172.3l53.5-21.6c-2.2-11.3 1-30.4 1-30.4l-49.8 16.8c0 0-9.3 20.4-4.7 35.2z"/><path class="p" d="m581.3 128l99.4 10.3c-5.9 11.5-5.4 33.6-5.4 33.6l-97.8-8.5c-4.5-18 3.8-35.4 3.8-35.4z"/><path class="g" d="m582.3 129.7c1.5 17.2-3.5 32.2-3.5 32.2-4.5-20.1 3.5-32.2 3.5-32.2z"/><path class="n" d="m734.3 120.7l-25.8 8.4-7.9 2.7-1.8 0.5-14.1 4.7-12.4-1.3-92-9.4c0 0 44.1-9.7 61.7-13.6 2.2-0.5 3.9-0.8 5.1-1.1 11.1 0.5 23.9 1.6 36.4 2.9q2.4 0.3 4.9 0.5c4.6 0.5 9 1 13.3 1.5 18.4 2.2 32.6 4.2 32.6 4.2z"/><g style="opacity:.5;mix-blend-mode:soft-light"><path class="i" d="m698.8 132.3l-14.1 4.7-12.4-1.3c-4.7-5.7-14.5-15.7-30.3-23 2.2-0.5 3.9-0.8 5.1-1.1 11.1 0.5 23.9 1.6 36.4 2.9 5.1 3.6 12.1 9.7 15.3 17.8z"/><path class="i" d="m708.5 129.1l-7.9 2.7c-2-3.8-6.4-11.6-12.2-16.8 4.6 0.5 9 1 13.3 1.5 2.2 2.8 5.1 7 6.8 12.6z"/></g><path class="n" d="m679 173.8l-102.7-8.9-0.4-1c-0.2-0.7-5.4-17.4 3.9-36.6l0.5-1 104.4 10.7-0.4 3.2-102-10.5c-6.9 15-4.4 28.5-3.5 32.2l100.5 8.7z"/><path class="y" d="m582.6 126.5l101 10.4"/><path class="c" d="m684.3 140.2l49.7-15.9 0.3-3.6-49.6 16.3z"/><path class="c" d="m679.3 170.6l52.3-21.5-0.4 3.1-52.2 21.6z"/><path class="z" d="m586.3 136.3l82.9 8.9"/><path class="z" d="m583.9 158.4l80.3 6.7"/><path class="z" d="m664.2 157.9l-74.6-5.4"/><path class="z" d="m586.3 144.1l63.2 5.3"/><path class="A" d="m682.1 163.6l39.1-13.2"/><path class="A" d="m724.6 131.9l-38.7 12"/><path class="A" d="m689.9 148.5l29.4-8.6"/><path class="A" d="m720.4 144.7l-37.9 12"/><path class="g" d="m673.4 64l-0.1 1.2-10.9-0.5-0.3-1.9z"/><path class="k" d="m592.5 75.3l80.6 28.3 0.5 0.2 15.2-3.7 7.9-1.9 3.8-1 6.1-1.4 36.9-9c0 0-18.1-3.7-40.2-10.9q-3.6-1.2-7.2-2.5-1.6-0.5-3.3-1.1c-4.7-1.7-9.5-3.5-14.2-5.5q-5.5-2.3-10.8-4.8c-38.5 9.2-75.3 13.3-75.3 13.3z"/><path class="e" d="m673.5 70.8c11.8 6 32.6 12.1 32.6 12.1-4.6 2.8-15.4 5.6-15.4 5.6-15-5-29.9-13.2-29.9-13.2 5.1-1.8 12.7-4.5 12.7-4.5z"/><path class="u" d="m665.6 136.6l17.5-4.5 5.8-1.5 7-1.8 4.6-1.2 39-10c0 0 8.9-12.5 4-30.8l-37 7.2-5.9 1.2-4.1 0.8-7.6 1.5-15.1 2.9-0.7 3.2z"/><g style="opacity:.5;mix-blend-mode:soft-light"><path fill-rule="evenodd" class="i" d="m676.5 129.4c0.1-0.1 5.1-11.6 4.4-25.6 0-0.3 0.2-0.5 0.5-0.6 0.4-0.1 45.5-8.8 57.3-11.3q0.2 0 0.4 0.1 0.2 0.1 0.2 0.4c0.1 0.5 2.7 13.8-3.6 23.5q-0.1 0.2-0.3 0.3l-58.2 14q-0.1 0-0.2 0-0.2 0-0.4-0.2c-0.1-0.2-0.2-0.4-0.1-0.6zm58.4-14.3c5.2-8.2 3.8-19.3 3.4-21.9-11.9 2.4-51.4 10.1-56.2 11 0.4 11.6-2.9 21.5-4.1 24.6z"/><path class="i" d="m687.8 106.9c0-0.3 0.2-0.6 0.6-0.6 0.3 0 0.5 0.3 0.5 0.6 0 8-3.5 17.4-3.6 17.8-0.1 0.2-0.3 0.4-0.6 0.4q-0.1 0-0.2-0.1c-0.3-0.1-0.4-0.4-0.3-0.7 0-0.1 3.6-9.6 3.6-17.4z"/><path class="i" d="m692.5 105.8c0-0.3 0.2-0.6 0.6-0.6 0.3 0 0.5 0.3 0.5 0.6 0 8-3.5 17.4-3.6 17.8-0.1 0.2-0.3 0.4-0.6 0.4q-0.1 0-0.2-0.1c-0.3-0.1-0.4-0.4-0.3-0.7 0-0.1 3.6-9.6 3.6-17.4z"/><path fill-rule="evenodd" class="i" d="m699 105.1c0-0.3 0.2-0.6 0.5-0.6l35.1-7.1q0.3 0 0.5 0.1 0.2 0.2 0.2 0.4c0 0.4 0.5 8.4-2.9 15.7q-0.1 0.3-0.4 0.4l-34.5 7.5q-0.1 0-0.1 0-0.3 0-0.5-0.2c-0.1-0.1-0.1-0.3-0.1-0.5 0-0.1 2.4-8.2 2.2-15.7zm-0.6 14.4l16.3-10-14.5-3.8c0 5.5-1.2 11.1-1.8 13.8zm1.6 0.3l29.4-6.4-13.1-3.5zm16-11l15.9-9.6-29.8 6zm18.1-9.7l-16.5 10.1 13.9 3.6c2.4-5.4 2.6-11.3 2.6-13.7z"/></g><path class="g" d="m589.6 107.9l9.4-0.3 2.3 4.1z"/><path class="g" d="m596.1 104l5.7-1-5.4-5.4 4.3-0.3-4-5.7 3.4-0.5 15.9 12.2 13.3 9.2-32.5-7z"/><path class="p" d="m595.5 112.3l69.5 22.1c8.7-10.9 7-32.4 7-32.4l-75.3-22c0.1 3.1 0.1 6.8 0 10.5l4.4 1.7-4.4-0.6q-0.1 2.4-0.2 4.7l15.6 5.2-15.7-3.9q-0.1 2.3-0.2 4.3l28.9 9.1-29-7c-0.3 4.9-0.6 8.3-0.6 8.3z"/><path class="g" d="m670.2 103.6c-7 17.3-5.9 28.5-5.9 28.5 9.9-9.4 5.9-28.5 5.9-28.5z"/><path class="m" d="m603 88.5l53.8 16"/><path class="m" d="m606.5 96.3l57 18.3"/><path class="m" d="m655 117.6l-39.8-11.5"/><path class="m" d="m603.9 108.9l56.3 16.1"/><path class="e" d="m665.6 136.6l0.8-0.8c0.5-0.5 11.2-11.3 7.6-34.1l-0.2-1.3-81.3-25.1-0.1 4.2 77.8 24.1c2.2 16.3-3.7 25.7-5.9 28.5l-74.7-24.2-0.4 4.8z"/><path class="e" d="m681.5 89.5l0.2-0.6c-0.1 0-13.2-4.6-22-11.2l-0.4 0.4c8.9 6.7 22.1 11.3 22.2 11.4z"/><path class="e" d="m678.5 91.2l0.2-0.6c-0.2 0-13.3-4.6-22.1-11.2l-0.3 0.5c8.9 6.6 22 11.2 22.2 11.3z"/><g style="opacity:.5;mix-blend-mode:soft-light"><path class="i" d="m688.9 97.5c-6.5-12.3-9.3-24.7-10.3-30.7 4.7 2 9.5 3.8 14.2 5.5-0.4 12 3.7 23.7 3.7 23.7q0.2 1 0.2 2.2c0.4 9.8-5.8 27.2-7.8 32.4l-5.8 1.5c4.7-12.8 5.6-26.5 5.7-32 0.1-1.7 0.1-2.6 0.1-2.6z"/><path class="i" d="m700.6 95.2q0-0.2 0-0.2c-3.1-7.1-4.1-16.6-4.5-21.6q3.6 1.3 7.2 2.5c-0.5 8.7 3.1 17.9 3.2 18.1q0 0 0 0 0.1 0.9 0.1 1.8c0.3 13.4-6.1 31.8-6.1 31.8l-4.6 1.2c3.7-12 4.5-26.2 4.6-31.6 0-1 0-1.7 0.1-2z"/></g><path class="n" d="m673.4 64l-5.5-2.6-5.8 1.4 1.1 1c5.1-1.3 8.4 0.9 8.4 0.9z"/><path class="n" d="m602.3 73.1l-12.4 1.6 15.4 4.8 2.8-0.4c-8.2-2.4-3.9-4.8-3.9-4.8z"/><path class="c" d="m589.9 74.7l0.8 5.3 14.1 4.2 0.5-4.7"/><path class="g" d="m577 71.2h5.4l-1.4 2.3z"/><path class="h" d="m629.3 93.3l-50.1-20.6c2.1-10.8-0.9-28.9-0.9-28.9l46.5 16c0 0 8.8 19.4 4.5 33.5z"/><path class="p" d="m717.6 51.1l-93.1 9.8c5.6 11 5.1 32 5.1 32l91.5-8.1c4.2-17.2-3.5-33.7-3.5-33.7z"/><path class="g" d="m716.6 52.7c-1.4 16.4 3.3 30.6 3.3 30.6 4.2-19.1-3.3-30.6-3.3-30.6z"/><path class="n" d="m574.4 44.1l24.1 8.1 7.5 2.5 1.7 0.5 13.1 4.4 11.6-1.2 86.1-8.9c0 0-41.3-9.3-57.8-12.9-2-0.5-3.6-0.9-4.7-1.1-10.4 0.5-22.4 1.6-34 2.8q-2.3 0.2-4.6 0.5c-4.3 0.4-8.5 0.9-12.4 1.4-17.3 2-30.6 3.9-30.6 3.9z"/><g style="opacity:.5;mix-blend-mode:soft-light"><path class="i" d="m607.7 55.2l13.1 4.4 11.6-1.2c4.4-5.4 13.6-14.9 28.3-21.8-2-0.5-3.6-0.9-4.7-1.1-10.4 0.5-22.4 1.6-34 2.8-4.8 3.4-11.3 9.2-14.3 16.9z"/><path class="i" d="m598.5 52.2l7.5 2.5c1.8-3.6 6-11 11.4-15.9-4.3 0.4-8.5 0.9-12.4 1.4-2.2 2.6-4.9 6.7-6.5 12z"/></g><path class="n" d="m626.2 94.7l96-8.5 0.3-1c0.3-0.6 5.1-16.5-3.5-34.8l-0.5-0.9-97.7 10.1 0.4 3.1 95.4-10c6.4 14.3 4.1 27.1 3.3 30.6l-94 8.3z"/><path class="y" d="m716.3 49.7l-94.5 9.8"/><path class="c" d="m621.2 62.7l-46.4-15.1-0.4-3.5 46.4 15.5z"/><path class="c" d="m625.9 91.6l-48.9-20.4 0.3 2.9 48.9 20.6z"/><path class="z" d="m712.9 59l-77.6 8.5"/><path class="z" d="m715.1 80.1l-75.1 6.3"/><path class="z" d="m640 79.5l69.7-5.1"/><path class="z" d="m712.9 66.4l-59.2 5.1"/><path class="A" d="m623.3 85l-36.6-12.5"/><path class="A" d="m583.5 54.8l36.2 11.4"/><path class="A" d="m615.9 70.6l-27.4-8.1"/><path class="A" d="m587.4 67l35.5 11.4"/><path class="p" d="m561.3 264.8l-75.7 11.4c-5.6 5.6-15.2 2.9-15.2 2.9l-52.1 14.8-40.4-21.5c4.1-2.4 6-14.6 6.1-15 43.7-18.2 69.4-9.7 69.4-9.7 33.5-21.8 63.5-13.8 63.5-13.8 11.3 7.4 35.5 18.4 35.5 18.4 2.2 5.2 8.9 12.5 8.9 12.5z"/><path class="g" d="m409 249.2c13.7 6.5 25 22 25 22 27.5-4.1 42.9 2.8 42.9 2.8l-31.3-24.5-34.4-0.5z"/><path class="p" d="m453.4 247.7c-18.1-13-62.9-4-62.9-4 25.7 2.9 44.3 25 44.3 25 27.4-3.4 42.1 5.3 42.1 5.3-8.4-15.2-23.5-26.3-23.5-26.3z"/><g style="mix-blend-mode:multiply"><path class="B" d="m455.1 249.1c13 10 20.7 23.1 20.7 23.1"/></g><path class="h" d="m561.3 264.8l-75.7 11.4c-5.6 5.6-15.2 2.9-15.2 2.9l-52.1 14.8-40.4-21.5c4.1-2.4 6-14.6 6.1-15 25.3 7.7 36.9 19.3 36.9 19.3 39.5-9.9 56-2.7 56-2.7 42.5-25.1 75.5-21.7 75.5-21.7 2.2 5.2 8.9 12.5 8.9 12.5z"/><path class="g" d="m470.4 279.1c6.2-3.5 15.2-2.9 15.2-2.9-5.5 6.1-15.2 2.9-15.2 2.9z"/><g style="mix-blend-mode:multiply"><path class="B" d="m493.7 269.8c28.2-14.3 53.9-14.4 53.9-14.4"/><path class="B" d="m501.2 269.1c26.5-9.5 46.8-9.5 46.8-9.5"/><path class="B" d="m506.5 270.7c22.9-6.9 47.3-7.9 47.3-7.9"/><path class="B" d="m469.5 275c-19.8-2.2-43.2 4.9-43.2 4.9"/><path class="B" d="m464.5 276.6c-16.8 0.7-32.1 6.4-32.1 6.4"/><path class="B" d="m461.6 279.2c-18.2 2.6-30.8 8.8-30.8 8.8"/><path class="B" d="m420.4 277.8c0.4 8.1-1.5 15-1.5 15"/><path class="B" d="m418.6 278.6c-15.2-11.6-31.6-15.8-31.6-15.8"/><path class="B" d="m387.3 266.5c14.4 4.4 23.5 10.6 23.5 10.6"/><path class="B" d="m384.3 270.3c20.8 6.2 30.9 14.7 30.9 14.7"/></g><path class="d" d="m561.3 264.8c-0.5 1.8-0.8 3.6-0.7 5.2l-73.2 8.7c-6.3 5.1-16.4 2.9-16.4 2.9l-51.7 16.1-40.2-21.1c0.1-0.7-0.5-2.4-1.2-4.2l3.8 2 36.6 19.5 52.1-14.8c9.9 2.4 15.2-2.9 15.2-2.9l71.2-10.7z"/><path class="n" d="m485.6 273.5l7.5-3.7c2.3 5.9 10.5 8.8 10.5 8.8l-7.2 0.9-2 3.9c-5.8-3.7-8.8-9.9-8.8-9.9z"/><g style="mix-blend-mode:multiply"><path class="B" d="m461.7 251.1c23.9-15.5 46.4-14.8 46.4-14.8"/><path class="B" d="m468 255.9c22.1-15.2 47.6-15.7 47.6-15.7"/><path class="B" d="m474.5 261.1c26.8-15.4 50.8-16.2 50.8-16.2"/><path class="B" d="m480.5 265.9c26.8-15.4 55.2-16.2 55.2-16.2"/><path class="B" d="m454.7 250.5c-19.7-8.4-40.9-5.4-40.9-5.4"/><path class="B" d="m458.5 254.9c-21.8-7.3-39.3-4.7-39.3-4.7"/><path class="B" d="m463.6 259.9c-21.8-7.3-39.3-4.7-39.3-4.7"/><path class="B" d="m468.9 265.7c-21.8-7.4-39.3-4.8-39.3-4.8"/></g><path class="g" d="m806.6 270.6h-5.6l1.5 2.5z"/><path class="h" d="m752.9 293.4l51.4-21.2c-2.1-11.1 1-29.7 1-29.7l-47.9 16.4c0 0-8.9 20-4.5 34.5z"/><path class="p" d="m662.2 250l95.6 10c-5.8 11.4-5.3 32.9-5.3 32.9l-93.9-8.3c-4.4-17.6 3.6-34.6 3.6-34.6z"/><path class="g" d="m663.2 251.7c1.4 16.8-3.4 31.4-3.4 31.4-4.3-19.6 3.4-31.4 3.4-31.4z"/><path class="k" d="m809.3 242.8l-24.8 8.3-7.7 2.6-1.7 0.6-13.5 4.5-11.9-1.2-88.5-9.3c0 0 42.5-9.5 59.4-13.2 2-0.5 3.7-0.8 4.9-1.1 10.6 0.5 23 1.6 34.9 2.8q2.4 0.3 4.7 0.5c4.4 0.5 8.7 1 12.8 1.5 17.7 2.1 31.4 4 31.4 4z"/><g style="opacity:.5;mix-blend-mode:soft-light"><path class="i" d="m775.1 254.3l-13.5 4.5-11.9-1.2c-4.6-5.6-14-15.4-29.1-22.5 2-0.5 3.7-0.8 4.9-1.1 10.6 0.5 23 1.6 34.9 2.8 4.9 3.6 11.6 9.5 14.7 17.5z"/><path class="i" d="m784.5 251.1l-7.7 2.6c-1.9-3.7-6.1-11.3-11.7-16.4 4.4 0.5 8.7 1 12.8 1.5 2.1 2.7 4.9 6.9 6.6 12.3z"/></g><path class="e" d="m756.1 294.8l-98.7-8.7-0.3-1c-0.2-0.7-5.2-17 3.7-35.8l0.4-1 100.4 10.5-0.4 3.1-98-10.2c-6.6 14.7-4.2 27.8-3.4 31.4l96.6 8.5z"/><path class="y" d="m663.5 248.6l97 10.1"/><path class="u" d="m761.2 261.9l47.7-15.5 0.4-3.5-47.7 15.9z"/><path class="u" d="m756.4 291.6l50.2-21-0.3 3-50.2 21.2z"/><path class="z" d="m667 258.1l79.7 8.7"/><path class="z" d="m664.7 279.8l77.2 6.4"/><path class="z" d="m741.9 279.2l-71.7-5.2"/><path class="z" d="m667 265.8l60.8 5.1"/><path class="A" d="m759.1 284.8l37.6-12.8"/><path class="A" d="m799.9 253.9l-37.2 11.7"/><path class="A" d="m766.6 270l28.2-8.3"/><path class="A" d="m795.8 266.4l-36.3 11.7"/><text style="transform:matrix(1,0,0,1,36.105,248.173)" ><tspan x="12.1" y="5.1" class="C">Lorem ipsum dolor sit amet, consectetuer adipiscing elit, sed diam </tspan><tspan x="5.7" y="13.4" class="C">nonummy nibh euismod tincidunt ut. Consectetuer adipiscing elit, sed </tspan><tspan x="53" y="21.8" class="C">diam nonummy nibh euismod tincidunt ut.
</tspan></text><text style="transform:matrix(1,0,0,1,162.902,105.601)" ><tspan x="-30.3" y="0" class="D">up to
</tspan></text><text style="transform:matrix(1,0,0,1,64.6,58.895)" ><tspan x="0" y="22.9" class="E">DISCOUNTS
</tspan></text><text style="transform:matrix(1,0,0,1,162.902,188.055)" ><tspan x="-103.6" y="0" class="F">50%
</tspan></text><text style="transform:matrix(1,0,0,1,165.561,222.619)" ><tspan x="-85.8" y="0" class="G">WORLD BOOK DAY
</tspan></text></svg>