<svg version="1.2" xmlns="http://www.w3.org/2000/svg" viewBox="0 0 868 629" width="868" height="629"><defs><linearGradient id="P" gradientUnits="userSpaceOnUse"/><radialGradient id="g1" cx="0" cy="0" r="1" href="#P" gradientTransform="matrix(.241,0,0,.241,629.161,452.608)"><stop stop-color="#fff"/><stop offset="1" stop-color="#9997c6"/></radialGradient><clipPath clipPathUnits="userSpaceOnUse" id="cp1"><path d="m703.43 329.01c34.68 47.51 24.28 114.14-23.23 148.82-47.52 34.68-114.15 24.27-148.82-23.24-34.68-47.51-24.28-114.14 23.23-148.82 47.51-34.68 114.14-24.28 148.82 23.24z"/></clipPath><radialGradient id="g2" cx="0" cy="0" r="1" href="#P" gradientTransform="matrix(74.038,-54.046,54.046,74.038,391.356,364.86)"><stop stop-color="#fff" stop-opacity="1"/><stop offset="1" stop-color="#c4c4c3" stop-opacity="0"/></radialGradient><radialGradient id="g3" cx="0" cy="0" r="1" href="#P" gradientTransform="matrix(53.588,-39.118,39.118,53.588,402.304,371.307)"><stop stop-color="#fff" stop-opacity="1"/><stop offset="1" stop-color="#c4c4c3" stop-opacity="0"/></radialGradient></defs><style>.a{fill:#ccc3bc}.b{fill:#f2e2e5}.c{fill:#e0d3d5}.d{fill:#ccbec1}.e{fill:#e8e2dd}.f{fill:#0a6c8e}.g{fill:#eee6de}.h{fill:#efd5bf}.i{mix-blend-mode:multiply;fill:#e8d3c1}.j{fill:#9e6718}.k{fill:#ffd773}.l{fill:#87510a}.m{opacity:.5;mix-blend-mode:overlay;fill:#fff}.n{fill:#ee6d4a}.o{fill:#007f7c}.p{fill:#00aaac}.q{fill:#4cede5}.r{mix-blend-mode:overlay;fill:#00c1bc}.s{fill:#167ba8}.t{fill:#3989b4}.u{fill:#0a759b}.v{fill:#3c9cc6}.w{fill:#b6e2ff}.x{fill:#003e60}.y{fill:#e0512f}.z{fill:#f48369}.A{fill:#f9a0a0}.B{fill:#cc3a1d}.C{fill:#ffbc00}.D{fill:#f7a500}.E{opacity:.4;mix-blend-mode:overlay;fill:#fff}.F{fill:#cc8200}.G{fill:#6d3e06}.H{fill:#eadbce}.I{fill:#e5d1c3}.J{fill:#d6b8a1}.K{fill:#dbc2ad}.L{mix-blend-mode:multiply;fill:#eee6de}.M{fill:#c4c4c3}.N{fill:url(#g1)}.O{opacity:.5;mix-blend-mode:overlay;fill:url(#g2)}.P{opacity:.5;mix-blend-mode:overlay;fill:url(#g3)}.Q{opacity:.4;mix-blend-mode:overlay;fill:#e9f8ff}</style><path class="a" d="m679.7 139.2l-1.4-1.6c3.5-3.1 5.7-4.8 5.8-4.8l1.3 1.7c0 0-2.3 1.6-5.7 4.7z"/><path class="a" d="m651 453.8v-2.2q7.5-0.2 14.7-0.6l0.1 2.1q-7.2 0.4-14.8 0.7zm23.2-1.2l-0.1-2.1c4.9-0.3 9.9-0.7 14.7-1.1l0.2 2.2c-4.8 0.4-9.8 0.7-14.8 1zm23.2-1.8l-0.2-2.1c5-0.5 9.9-1.1 14.6-1.7l0.3 2.1c-4.8 0.6-9.7 1.2-14.7 1.7zm23.1-2.8l-0.4-2.1c5-0.7 9.9-1.5 14.6-2.3l0.4 2.1c-4.7 0.8-9.6 1.6-14.6 2.3zm22.9-3.9l-0.5-2.1c5-0.9 9.8-2 14.4-3.1l0.5 2c-4.6 1.2-9.5 2.2-14.4 3.2zm22.6-5.3l-0.6-2.1c4.9-1.3 9.6-2.7 14.1-4.3l0.7 2.1c-4.5 1.5-9.3 2.9-14.2 4.3zm22.1-7.2l-0.7-2c4.7-1.8 9.2-3.8 13.4-5.8l0.9 1.9c-4.2 2.1-8.8 4.1-13.6 5.9zm21.2-9.8l-1.1-1.8c4.5-2.5 8.6-5.1 12.4-7.8l1.2 1.7c-3.8 2.8-8 5.4-12.5 7.9zm19.2-13.1l-1.3-1.7c3.8-3.2 7.2-6.7 10.2-10.3l1.6 1.4c-3 3.7-6.6 7.2-10.5 10.6zm15.6-17.4l-1.7-1.2c2.6-4.1 4.9-8.4 6.7-12.9l2 0.8c-1.9 4.6-4.2 9.1-7 13.3zm9.7-21.4l-2.1-0.5c1.2-4.6 2-9.4 2.4-14.4l2.2 0.2c-0.4 5.1-1.3 10.1-2.5 14.7zm0.6-23.2q0-2.8-0.2-5.7c-0.1-3-0.5-6-0.9-8.8l2.1-0.4c0.5 2.9 0.8 6 1 9.1q0.2 2.9 0.2 5.8zm-2.8-22.7c-1.3-4.8-2.9-9.4-5-13.7l1.9-0.9c2.1 4.4 3.9 9.1 5.1 14zm-9-20.8c-2.6-4.1-5.7-7.9-9.1-11.2l1.4-1.6c3.6 3.5 6.8 7.4 9.5 11.6zm-15.4-16.6c-3.8-2.8-8-5.3-12.5-7.5l0.9-1.9c4.7 2.2 9 4.8 12.8 7.7zm-20.1-10.7c-4.4-1.6-9.1-2.9-14-3.9l0.4-2.1c5 1.1 9.8 2.4 14.3 4zm-102.4-0.8q-1.9 0-3.7-0.1v-2.1c4.7 0.1 9.6 0 14.7-0.4l0.1 2.1c-3.8 0.3-7.5 0.5-11.1 0.5zm-12.2-0.6c-5.1-0.5-10.1-1.3-14.7-2.5l0.5-2c4.5 1.1 9.4 1.9 14.4 2.4zm31.8-0.7l-0.3-2.1c2.5-0.4 5-0.7 7.6-1.2q3.5-0.6 7-1l0.3 2.1q-3.4 0.4-7 1c-2.6 0.5-5.1 0.9-7.6 1.2zm60.5-3.1c-4.6-0.6-9.5-1-14.6-1.1l0.1-2.2c5.1 0.2 10.1 0.5 14.8 1.1zm-37.6-0.1l-0.2-2.1c5-0.5 10-0.8 14.8-1v2.2c-4.7 0.1-9.6 0.4-14.6 0.9zm-77.6-0.9c-4.9-1.8-9.5-3.9-13.6-6.4l1.2-1.8c3.9 2.4 8.3 4.5 13.1 6.2zm-20.5-11.4c-4-3.3-7.4-7.1-10.1-11.2l1.8-1.2c2.6 4 5.8 7.6 9.6 10.7zm-14.1-18.7c-1.9-4.6-3.1-9.5-3.6-14.6l2.1-0.2c0.5 4.9 1.6 9.6 3.5 14zm-1.5-23.1l-2.2-0.1c0.3-4 1.1-8 2.2-12.1q0.4-1.3 0.8-2.6l2.1 0.7q-0.4 1.2-0.8 2.5c-1.1 3.9-1.8 7.8-2.1 11.6zm5.7-22l-2-0.8c1.8-4.5 4-9 6.4-13.4l1.9 1c-2.4 4.3-4.5 8.8-6.3 13.2zm10.6-20.4l-1.8-1.2c2.5-4 5.4-8.1 8.5-12.1l1.7 1.3c-3 3.9-5.9 8-8.4 12zm13.8-18.4l-1.7-1.4c3.3-3.8 6.7-7.4 10.3-10.8l1.4 1.5c-3.5 3.4-6.9 7-10 10.7z"/><path class="a" d="m634.6 454.2v-2.2q3.7 0 7.4-0.1l0.1 2.1q-3.7 0.1-7.5 0.2z"/><path class="b" d="m684.7 110.6l-40.5-26.6 174.9-34.2z"/><path class="c" d="m684.7 110.6l11.8 26.6 122.6-87.4z"/><path class="d" d="m702.1 123.1l-5.6 14.1 26.3-17.4z"/><path class="b" d="m702.1 123.1l33.4 56.1 83.6-129.4z"/><path class="e" d="m67 481.1c0 0-35.6 8.6-54.1 16.6-18.5 7.9-43.3 7.4 153.3 40.4 196.6 33 209.8 39.2 203.6 48.3-6.3 9 81.7 17 115.3 13.3 33.6-3.7 45.4-13.3 45.4-13.3 0 0 76.3 6.9 124.8 42.1 77.7-32.5 212.3-90.4 212.3-90.4l-107.2-26.4z"/><path class="f" d="m616.7 478.2l-18.8-2.2-6.2 7.6z"/><path class="g" d="m543.3 33l-0.2 90.6c0 0-106.5 8.1-129.6 0.8-23.1-7.3-12.3-37.9-12.3-52.5 0-14.5 0.4-50.1 4.1-58.5 3.7-8.3 21.3-4 42.9-1.3 21.6 2.7 95.1 20.9 95.1 20.9z"/><path class="h" d="m401.2 71.9c0-14.5 0.4-50.1 4.1-58.5 3.7-8.3 21.3-4 42.9-1.3 21.6 2.7 95.1 20.9 95.1 20.9l-0.1 15.1c-19.7-4.8-71-14.6-88.2-16.8-21.6-2.7-36.8-5.5-40.6 2.9-3.7 8.3-4.9 40.3-5 54.9 0 8.1-3.3 20.9-2.4 32.1-14.4-10.6-5.8-36.3-5.8-49.3z"/><g style="opacity:.6"><path class="i" d="m401.9 14.7l140.3 25.6c0 0-112.6-24.8-140.3-25.6z"/><path class="i" d="m398.1 66.7l141.7 11c0 0-114.1-12.9-141.7-11z"/><path class="i" d="m398.1 60.9l141.6 14.7c0 0-113.9-16-141.6-14.7z"/><path class="i" d="m398.1 57.4l141.6 14.7c0 0-113.9-16-141.6-14.7z"/><path class="i" d="m398.2 52.8l141.4 16.1c0 0-113.8-17.2-141.4-16.1z"/><path class="i" d="m398.3 46.7l141.2 19c0 0-113.5-19.5-141.2-19z"/><path class="i" d="m398.3 42.3l141.2 19c0 0-113.5-19.5-141.2-19z"/><path class="i" d="m398.4 36.9l141.1 20.4c0 0-113.4-20.6-141.1-20.4z"/><path class="i" d="m398.4 31.8l141.1 20.4c0 0-113.4-20.6-141.1-20.4z"/><path class="i" d="m398.5 26.7l140.9 21.9c0 0-113.2-21.8-140.9-21.9z"/><path class="i" d="m397.9 21l140.9 21.8c0 0-113.2-21.8-140.9-21.8z"/><path class="i" d="m402.2 114.7l136.6-0.2c0 0-109.1 4.1-136.6 0.2z"/><path class="i" d="m398.7 71l140.5 9.5c0 0-112.8-4.4-140.5-9.5z"/><path class="i" d="m398.7 75.7l140.4 8c0 0-113-2.2-140.4-8z"/><path class="i" d="m398.8 81.9l140.2 5c0 0-112.7 0.2-140.2-5z"/><path class="i" d="m398.8 86.3l140.2 5.1c0 0-112.7 0.1-140.2-5.1z"/><path class="i" d="m398.9 91.8l140 3.6c0 0-112.5 1.3-140-3.6z"/><path class="i" d="m398.9 96.8l140 3.7c0 0-112.6 1.3-140-3.7z"/><path class="i" d="m398.9 102l139.9 2.1c0 0-112.4 2.6-139.9-2.1z"/><path class="i" d="m398.3 107.7l139.9 2.1c0 0-112.4 2.6-139.9-2.1z"/><path class="i" d="m401.1 118.9l140.5 1.6c0 0-113 2.5-140.5-1.6z"/></g><path class="j" d="m415.8 0.9c0 0-232.3 25-251.2 30.6-19 5.7-14.7 61.9-11.5 79.3 3.3 17.5 16.1 22.6 29.6 23.1 13.6 0.6 253.1-0.4 253.1-0.4 0 0-32.2-5.9-35.7-30.5-3.4-24.5 2.2-73.3 3.3-81.6 1.1-8.3 12.4-20.5 12.4-20.5z"/><path class="k" d="m313.3 107.5c-3.2-24 2-71.6 3.1-79.6 0.7-5.6 5.8-13 9-17q0 0 0 0-8.2 0.9-16.7 2c-3.1 4.1-7.7 10.9-8.4 16.2-1 8-6.2 55.6-3 79.6 1.8 14 8.2 21.4 13.2 25.2q8.9 0 17.6 0c-5.1-3.4-12.7-10.9-14.8-26.4z"/><path class="k" d="m285.5 108.3c-3.2-23.3 2-69.7 3-77.6 0.7-5.4 5.8-12.5 9-16.5q-8.4 1-16.7 2c-3.2 4.1-7.7 10.6-8.3 15.7-1 7.8-6.3 54.2-3.1 77.5 1.9 13.6 8.2 20.9 13.2 24.6q8.7 0 17.6-0.1c-5.1-3.3-12.7-10.6-14.7-25.6z"/><path class="l" d="m394.1 65.9c0.2-3.7 0.4-7.2 0.5-10.6q0.1-3.3 0.2-6.7c0.4-17.5 0.9-35.7 11.2-43.8 4.6-3.7 10.6-4.9 17.8-3.6 20.7 3.8 108 22.4 126.9 26.4v12.4c-12.3-2.6-107.5-23-128.7-26.8-4.8-0.9-6.9 0.3-8.1 1.2-6 4.8-6.4 20.8-6.8 35q-0.1 3.4-0.2 6.8c-0.1 3.4-0.4 9.4-0.5 10.8-0.1 3.1-1.7 47 5.7 51.9 8.2 4 76.5 7.5 138.5 4.5l-0.1 12.2c-24 1.2-79.5-0.7-114.7-2.1-14.4-0.6-25.4-1.8-29.4-4-15.1-8.3-13.7-36.4-12.3-63.6z"/><g style="mix-blend-mode:multiply"><path class="h" d="m413.8 82.4c0 0 2.1 30.1 1.9 49.5 11.5 1.2 23.9 1.7 23.9 1.7 0 0-5.1-49.8-25.8-51.2z"/></g><path class="m" d="m167.9 34.8c0 0 157.1-18.3 182.8-20.7 25.8-2.5 34.5-4.8 38-2.3 3.5 2.4 2 25.2 0 28.5-2 3.3-17.8 3.2-35.1 3.6-17.3 0.5-186.1 8.2-191 8.3-4.9 0.2-3.9-7.7-2.2-10.9 1.7-3.1 3.9-6.1 7.5-6.5z"/><path class="n" d="m550.7 225.2c0 0 11.7 31.6 11.4 57.6 4.3-6.1 8.6-14.3 8.6-14.3l14 12.5c0 0-8.7-58-19.8-75.6-11.1-17.7-14.2 19.8-14.2 19.8z"/><path class="o" d="m129.6 226.2l42.3 27.2h353.9l39.1-27.2c0 0-170.9-5.9-226.9-10-56-4.1-208.4 10-208.4 10z"/><path class="p" d="m129.6 131.7c0 0 418.6 1.8 433.9 3.5 9.4 3 8.8 27.1 9.4 47.6 0.6 20.6 1.1 40.3-8 43.4-9.1 3.1-428.4 0.2-435.3 0-6.8-0.3-11.5-13.6-12.3-35.1-0.8-21.6-3.1-59.5 12.3-59.4z"/><path class="q" d="m173.5 131.9q-8.2 0-15.2-0.1c-1.6 2.3-3.4 6.2-3.4 12.6 0 12.2 0 49 0 59.9 0 7.8 3.8 17 6.7 22.1 5.6 0.1 11.8 0.1 18.6 0.2-3.6-4-9.1-11.5-10.3-21-1.8-14.2-1.5-50.4-0.7-58.9 0.5-6.7 2.3-12.3 4.3-14.8z"/><path class="q" d="m200.2 132q-8 0-15.2 0c-1.6 2.2-3.3 6.1-3.3 12.4 0 12.2 0 49 0 59.9 0 7.9 3.8 17.2 6.8 22.3q8.8 0.1 18.6 0.1c-3.6-3.9-9.2-11.5-10.4-21.1-1.8-14.2-1.5-50.4-0.8-58.9 0.6-6.6 2.3-12.1 4.3-14.7z"/><path class="q" d="m513.3 227.4c6.7 0 12.9-0.1 18.5-0.2 2.9-5.2 6.4-14 6.4-21.6 0-10.8 0-47.7 0-59.8 0-5.4-1.2-9-2.6-11.3q-6.9-0.1-15.3-0.2c1.7 2.8 3.2 7.8 3.7 13.7 0.7 8.6 1 44.7-0.8 59-1.2 9.1-6.3 16.3-9.9 20.4z"/><path class="q" d="m486.5 227.5q9.7 0 18.5 0c2.8-5.3 6.5-14.2 6.5-21.9 0-10.8 0-47.7 0-59.8 0-5.6-1.4-9.3-2.8-11.7q-7.3 0-15.4-0.1c1.8 2.7 3.4 7.9 3.9 14 0.8 8.6 1.1 44.7-0.8 59-1.1 9.2-6.3 16.5-9.9 20.5z"/><path class="r" d="m129.6 138.2c0 0 228.3 0 300.2 0 71.9 0 114.1 0 123.9 0 9.8 0 13.1 4.4 13.9 12.2 0.8 7.8-2.4 9.1-22 8.9-19.6-0.2-403 0-416 0-12.9 0-9.7-21.1 0-21.1z"/><path class="s" d="m361.9 555.2c0 0-273.3-54.4-293.7-60.6-20.4-6.2-26.6-66.4-3.5-73.9 23-7.6 283.5-23.5 283.5-23.5l303.2 17.4z"/><path class="t" d="m68.2 494.6c20.4 6.2 293.7 60.6 293.7 60.6l156.1-79.6-461.9-48.2c-12.2 17.9-5.2 62 12.1 67.2z"/><path class="g" d="m644.1 421.8c-56.3 4.7-257 22.2-284.4 37.4-31.9 17.7-21.3 87.7 5.3 89.5 21.5 1.4 208.7-38.4 279.1-53.6z"/><path class="h" d="m374.4 481.1c25.4-14.1 199.4-30.1 269.7-36.1v-23.2c-56.3 4.7-257 22.2-284.4 37.4-29 16.1-22.9 75.3-1.6 87.3-6.9-22.5-3.7-54.2 16.3-65.4z"/><path class="u" d="m651.4 486.7c-85.7 18.6-260.4 55.4-284.8 55.4q-0.6 0-1.1 0c-7.1-0.5-13.9-10.3-17.1-24.3-4.4-19.8-0.9-44.2 14.5-52.8 24.3-13.5 209.4-30.8 288.5-37.1v-13.3c-47.8 3.8-264.5 21.9-294.9 38.8-22.1 12.2-26.4 43.5-21.1 67.3 4.6 20.5 14.2 33.6 27.6 34.5 0.4 0.1 2.5 0.2 3 0.2 29 0 218.5-40.6 285.4-55.1z"/><path class="i" d="m365 470.3l275.6-37.7c0 0-222.9 24.4-275.6 37.7z"/><path class="i" d="m361.7 478l275.5-37.7c0 0-222.8 24.4-275.5 37.7z"/><path class="i" d="m354.6 486.6l280.4-39.4c0 0-227.7 26.1-280.4 39.4z"/><path class="i" d="m354.3 495.3l280.3-42.2c0 0-227.6 28.9-280.3 42.2z"/><path class="i" d="m354.3 503.1l280.3-43.9c0 0-227.6 30.6-280.3 43.9z"/><path class="i" d="m354.3 510.4l280.3-46.2c0 0-227.6 32.9-280.3 46.2z"/><path class="i" d="m356.4 515.6l278.6-45.8c0 0-225.9 32.5-278.6 45.8z"/><path class="i" d="m356.4 521.9l278.2-46.3c0 0-225.5 33.1-278.2 46.3z"/><path class="i" d="m360.4 529.3l275.3-49.8c0 0-222.6 36.5-275.3 49.8z"/><path class="i" d="m365 535.7l272.2-51.4c0 0-219.5 38.1-272.2 51.4z"/><path class="v" d="m59.7 431.3c0 0 185 27.2 223.6 32.9 38.5 5.6 47.8 4 46.5 20.1-1.3 16.1-6.6 16-61.5 8.4-54.8-7.6-198.3-35.5-208.6-37.2-10.3-1.6-5.7-25 0-24.2z"/><path fill-rule="evenodd" class="w" d="m233.9 523.8q-0.5 0-1.1-0.1c-49.5-8-109-20.6-126.1-24.2-3.3-0.7-5.9-3.3-6.7-6.5-2.3-9.8-6.5-34.2 5.2-49.9 1.6-2.3 4.4-3.4 7.3-3.1l125.5 15.4c1.9 0.2 3.6 1.3 4.7 2.9 1.1 1.5 1.5 3.5 1 5.4-2.2 9.1-5.6 28.2-3.3 52.9 0.2 2.1-0.6 4-2.1 5.5-1.2 1.1-2.8 1.7-4.4 1.7zm-122.4-82.3c-2 0-3.9 0.9-5.1 2.5-11.2 15.2-7.1 39.1-4.8 48.6 0.6 2.7 2.7 4.8 5.4 5.3 17.1 3.7 76.6 16.2 126.1 24.3 1.5 0.2 3-0.3 4.1-1.3 1.2-1.1 1.8-2.6 1.6-4.2-2.3-24.9 1.2-44.2 3.4-53.4 0.4-1.4 0.1-2.9-0.8-4.1-0.8-1.3-2.1-2.1-3.6-2.2l-125.5-15.4q-0.4-0.1-0.8-0.1z"/><path class="x" d="m297.6 501.5c0 11.3-6.6 20.4-14.7 20.4-8 0-14.6-9.1-14.6-20.4 0-11.2 6.6-20.4 14.6-20.4 8.1 0 14.7 9.2 14.7 20.4z"/><path class="u" d="m272 502.2c0-11.3 6.5-20.4 14.6-20.4-1.2-0.4-2.4-0.7-3.7-0.7-8 0-14.6 9.2-14.6 20.4 0 11.3 6.6 20.4 14.6 20.4q0.1 0 0.1 0c-6.3-2.2-11-10.2-11-19.7z"/><path class="x" d="m94.6 464.5c0 8.6-5 15.6-11.2 15.6-6.2 0-11.2-7-11.2-15.6 0-8.6 5-15.6 11.2-15.6 6.2 0 11.2 7 11.2 15.6z"/><path class="u" d="m75 465c0-8.6 5-15.6 11.2-15.6q-1.4-0.5-2.8-0.5c-6.2 0-11.2 7-11.2 15.6 0 8.6 5 15.6 11.2 15.6q0 0 0 0c-4.8-1.7-8.4-7.8-8.4-15.1z"/><g style="mix-blend-mode:multiply"><path class="h" d="m367.7 500.2c0 0 2.4 33.8 2.2 55 6.1-0.5 25.1-3.3 25.1-3.3 0 0-5-51.1-27.3-51.7z"/></g><path class="n" d="m367.7 500.1c0 0 22.8 14.4 24.1 82.4 10.6-11 17.9-18 17.9-18l19.2 11.2c0 0-12.6-72-27.5-82.1-21.8 2.4-33.7 6.5-33.7 6.5z"/><path class="y" d="m328.9 447.3c0 0 238.6-29 256.2-35.3 17.6-6.4 22.9-58.7 3.1-64.1-19.9-5.3-244.8-17-244.8-17l-261.7 8.9z"/><path class="n" d="m585.1 412c-17.6 6.3-256.2 35.3-256.2 35.3l-116.1-68.5 116.6-22.7 266.1-2.8c10.6 14.9 4.5 53.3-10.4 58.7z"/><path class="g" d="m88 345.7c48.5 1.2 221.8 6.2 245.5 17.9 27.5 13.7 18.3 74.7-4.6 77.6-18.6 2.3-180.2-22.7-240.9-32.2z"/><path class="h" d="m320.7 383.3c-21.8-10.9-172.1-15.9-232.7-17.6v-20c48.5 1.2 221.8 6.2 245.5 17.9 25 12.5 19.7 63.8 1.4 75.4 5.9-19.8 3.1-47.1-14.2-55.7z"/><path class="z" d="m81.7 402.1c73.9 11.7 224.7 34.7 245.8 33.4q0.6 0 1 0c6.1-0.8 12-9.6 14.7-21.9 3.8-17.2 0.8-38.2-12.5-44.8-21-10.4-180.8-16-249-17.5v-11.5c41.2 0.9 228.3 5.6 254.6 18.7 19 9.4 22.7 36.2 18.1 57-3.9 17.9-13.6 29.9-25.1 31.4q-0.6 0-1.3 0.1c-25 1.4-188.6-24-246.3-33.1z"/><g style="opacity:.6"><path class="i" d="m328.9 373.5l-237.9-18.6c0 0 192.4 9.8 237.9 18.6z"/><path class="i" d="m331.7 379.9l-237.8-18.6c0 0 192.3 9.8 237.8 18.6z"/><path class="i" d="m337.9 387l-242.1-19.8c0 0 196.6 11 242.1 19.8z"/><path class="i" d="m338.1 394.5l-241.9-22.3c0 0 196.4 13.5 241.9 22.3z"/><path class="i" d="m338.1 401.3l-241.9-23.8c0 0 196.4 15 241.9 23.8z"/><path class="i" d="m338.1 407.6l-241.9-25.8c0 0 196.4 17 241.9 25.8z"/><path class="i" d="m336.3 412.2l-240.5-25.5c0 0 195 16.7 240.5 25.5z"/><path class="i" d="m336.3 417.6l-240.1-25.9c0 0 194.6 17.1 240.1 25.9z"/><path class="i" d="m332.9 424.1l-237.7-29c0 0 192.2 20.2 237.7 29z"/><path class="i" d="m328.9 429.9l-235-30.6c0 0 189.5 21.8 235 30.6z"/></g><path class="z" d="m592.7 358.8c0 0-149.8 11.7-189 15.6-33.8 3.3-43.4 1-42.2 14.9 1.1 13.8 20.4 10.9 68.4 5.8 53.3-5.7 153.7-15.4 162.6-17.3 8.8-2 5.2-20 0.2-19z"/><path class="A" d="m569.4 415.2c-0.4 0-0.7-0.3-0.8-0.6-0.1-0.5 0.2-0.9 0.6-1 2.5-0.5 10.8-5.8 12-11.5 1.4-5.9 3-19.4 3.9-30.7 0.7-10.8-6.6-15.1-6.9-15.2-0.4-0.3-0.6-0.7-0.4-1.1 0.2-0.4 0.7-0.5 1.1-0.3 0 0 8.6 5 7.7 16.8-0.8 11.4-2.5 25-3.8 31-1.4 6.1-10.1 11.9-13.2 12.6q-0.1 0-0.2 0z"/><path class="A" d="m559.1 416.3c-0.3 0-0.6-0.3-0.7-0.6-0.2-0.5 0.1-0.9 0.5-1 2.6-0.5 10.8-5.8 12.1-11.5 1.3-5.9 3-19.4 3.8-30.7 0.7-10.8-6.6-15.1-6.9-15.3-0.4-0.2-0.6-0.7-0.4-1 0.2-0.4 0.7-0.6 1.1-0.3 0.1 0 8.6 5 7.7 16.8-0.8 11.4-2.5 25-3.8 30.9-1.4 6.2-10 12-13.2 12.7q-0.1 0-0.2 0z"/><path class="B" d="m394.6 389.4c0.9 19.2-1.9 33.1-9.9 51 6.4-0.8 13.2-1.7 20.2-2.6 0.8-1.8 8-20 8.3-45.5 0.1-12.3-3.4-20.7-7.3-26.3l-18.7 1.2c3.5 5.4 6.9 12.9 7.4 22.2z"/><path class="B" d="m424 387.4c0.9 18.5-1.7 32.2-9.1 49.2 6.6-0.9 13.3-1.7 20.1-2.6 2.1-5.6 7.4-22 7.6-43.6 0.1-12.3-3.4-20.8-7.3-26.4l-18.7 1.3c3.5 5.3 7 12.9 7.4 22.1z"/><g style="mix-blend-mode:multiply"><path class="h" d="m319.5 391.7c0 0-2.2 35.3-2 55-5.8-0.4-24.1-2.2-24.1-2.2 0 0 5.3-52.3 26.1-52.8z"/></g><path class="C" d="m319.5 391.7c0 0-21.2 15.8-22.5 79.2-9.9-10.3-16.7-16.8-16.7-16.8l-17.9 10.5c0 0 11.8-67.1 25.6-76.6 20.4 2.3 31.5 3.7 31.5 3.7z"/><path class="g" d="m161.3 236.1v90.9c0 0 105.3 12.5 128.1 6.1 22.8-6.4 12.2-37.5 12.2-52.1 0-14.7-0.3-50.4-4-58.9-3.7-8.5-21-4.9-42.4-3-21.3 1.8-93.9 17-93.9 17z"/><path class="h" d="m301.6 281c0-14.7-0.3-50.4-4-58.9-3.7-8.5-21-4.9-42.4-3-21.3 1.8-93.9 17-93.9 17v15.3c19.5-4.1 70.2-11.9 87.2-13.3 21.3-1.9 36.4-4.1 40.1 4.4 3.6 8.6 4.8 40.7 4.8 55.4 0 8 3.3 21.1 2.4 32.2 14.2-10.1 5.8-36.1 5.8-49.1z"/><g style="opacity:.6"><path class="i" d="m301 223.5l-138.7 20c0 0 111.3-20.3 138.7-20z"/><path class="i" d="m304.6 275.8l-139.9 5.4c0 0 112.7-8.4 139.9-5.4z"/><path class="i" d="m304.6 270l-139.8 9c0 0 112.5-11.4 139.8-9z"/><path class="i" d="m304.6 266.5l-139.8 9c0 0 112.5-11.5 139.8-9z"/><path class="i" d="m304.6 261.9l-139.8 10.4c0 0 112.5-12.6 139.8-10.4z"/><path class="i" d="m304.5 255.7l-139.6 13.4c0 0 112.2-15 139.6-13.4z"/><path class="i" d="m304.5 251.3l-139.6 13.4c0 0 112.2-15 139.6-13.4z"/><path class="i" d="m304.4 245.9l-139.4 14.8c0 0 112-16.1 139.4-14.8z"/><path class="i" d="m304.4 240.9l-139.4 14.7c0 0 112-16.1 139.4-14.7z"/><path class="i" d="m304.3 235.7l-139.2 16.3c0 0 111.8-17.4 139.2-16.3z"/><path class="i" d="m304.9 229.9l-139.2 16.3c0 0 111.8-17.3 139.2-16.3z"/><path class="i" d="m300.6 323.8l-137.7-7.4c0 0 110.5 10.2 137.7 7.4z"/><path class="i" d="m304.1 280.2l-138.8 3.8c0 0 111.4 0.1 138.8-3.8z"/><path class="i" d="m304 284.8l-138.7 2.4c0 0 111.6 2.3 138.7-2.4z"/><path class="i" d="m303.9 291l-138.5-0.6c0 0 111.4 4.8 138.5 0.6z"/><path class="i" d="m303.9 295.5l-138.5-0.6c0 0 111.4 4.7 138.5 0.6z"/><path class="i" d="m303.9 300.9l-138.4-2c0 0 111.2 5.9 138.4 2z"/><path class="i" d="m303.9 306l-138.4-2c0 0 111.2 5.9 138.4 2z"/><path class="i" d="m303.8 311.2l-138.2-3.5c0 0 111 7.1 138.2 3.5z"/><path class="i" d="m304.4 317l-138.2-3.6c0 0 111 7.1 138.2 3.6z"/><path class="i" d="m301.7 328.1l-140-6.5c0 0 112.7 9.4 140 6.5z"/></g><path class="C" d="m287.3 209.1c0 0 229.4 34.4 248.1 40.9 18.7 6.4 16.3 54.5 13.1 71.8-3.3 17.4-15.9 22-29.3 22-13.4 0-237.6-2.9-237.6-2.9 0 0 17.6-4.3 21-28.7 3.4-24.5-2.1-73.7-3.1-82-1.1-8.4-12.2-21.1-12.2-21.1z"/><path class="k" d="m385.5 239.4c1 7.7 6.1 53.4 2.9 76.2-2.8 19.6-15.2 25.2-18.6 26.4 6.3 0.1 12.7 0.2 19.2 0.3 5.1-2.8 13.1-9.6 15.2-24.9 3.2-22.8-1.9-68.5-2.9-76.2-0.6-5.1-5.2-11.7-8.3-15.9q-8.3-1.3-16.4-2.5c3.1 4 8.2 11.2 8.9 16.6z"/><path class="k" d="m413 243.2c1 7.6 6.1 52.1 2.9 74.3-2.3 16.2-11.7 22.6-16.5 24.9q9.3 0.1 18.6 0.2c5-3.1 11.8-9.9 13.7-23.4 3.2-22.1-1.9-66.7-2.9-74.2-0.6-4.9-5-11.3-8.1-15.3q-8.3-1.3-16.6-2.6c3.1 3.9 8.2 10.9 8.9 16.1z"/><path class="D" d="m308.6 275.2c-0.2-3.7-0.3-7.3-0.5-10.6q-0.1-3.4-0.1-6.8c-0.5-17.6-0.9-35.8-11-44.4-4.6-3.9-10.5-5.3-17.6-4.3-20.5 3-106.8 18.1-125.4 21.4v12.4c12.1-2.2 106.2-18.7 127.1-21.7 4.7-0.7 6.8 0.5 8 1.5 5.9 5.1 6.3 21.2 6.7 35.4q0 3.5 0.2 6.9c0.1 3.4 0.4 9.3 0.4 10.8 0.1 3.1 1.7 47.2-5.7 51.8-8.1 3.7-75.5 0.3-136.7-5.3v12.3c23.8 2.1 78.6 6.7 113.3 6.7 14.2 0 25.1-0.8 29-2.8 15-7.8 13.6-36 12.3-63.3z"/><g style="mix-blend-mode:multiply"><path class="h" d="m289.2 291c0 0-2.2 30.1-2 49.5-11.4 0.8-23.7 0.8-23.7 0.8 0 0 5.2-49.8 25.7-50.3z"/></g><path class="t" d="m289.2 291c0 0-22.2 18.2-23.4 80.9-9.8-8.6-16.5-14.1-16.5-14.1l-17.6 13c0 0 12.4-68.6 26.1-80 20-0.8 31.4 0.2 31.4 0.2z"/><path class="E" d="m310.9 219.4c0 0 208 32.6 215.5 34 7.5 1.3 8.8 8.8 10.4 14.5 1.5 5.7-4.5 3.3-17.1 2.1-12.5-1.1-186.1-23.2-195.5-24.5-9.4-1.3-10.8-4.8-12.4-9.9-1.5-5.1-3.8-12.8-3.5-14.4 0.3-1.5 1-2.1 2.6-1.8z"/><path class="F" d="m324.3 340.9c-0.4 0-0.7-0.2-0.9-0.5-0.3-0.5-0.2-1.1 0.3-1.5 1.8-1.2 8.8-12.9 9.4-25.5 0.5-12.3 0.5-40.2 0-63.6-0.5-22.6-7.9-30.9-8-31-0.4-0.4-0.4-1.1 0.1-1.5 0.4-0.4 1.1-0.4 1.5 0 0.3 0.4 8 8.9 8.5 32.5 0.5 23.3 0.5 51.3 0 63.7-0.5 12.6-7.6 25.4-10.3 27.2q-0.3 0.2-0.6 0.2z"/><path class="F" d="m336.1 342.1c-0.3 0-0.7-0.2-0.9-0.5-0.3-0.5-0.2-1.1 0.3-1.4 1.9-1.3 8.9-13 9.4-25.6 0.6-12.3 0.6-40.2 0-63.6-0.5-22.6-7.9-30.9-8-31-0.4-0.4-0.3-1.1 0.1-1.5 0.4-0.4 1.1-0.4 1.5 0 0.3 0.4 8 8.9 8.6 32.5 0.5 23.4 0.5 51.3 0 63.7-0.6 12.6-7.7 25.4-10.4 27.2q-0.3 0.2-0.6 0.2z"/><path class="C" d="m413.8 82.4c0 0 22.4 19.1 23.5 81.7 9.9-8.3 16.7-13.4 16.7-13.4l17.8 13.7c0 0-12.5-69-26.2-80.8-20.3-1.7-31.8-1.2-31.8-1.2z"/><path class="l" d="m355.8 390.3c0 0 57.1 37.3 88.9 136.7-7 16.2 3.1 37 25.3 28.5 15.4-3.9 100.9-26.6 160.2 50.4 87.8-35.3 188-68.6 188-68.6 0 0 3.7-10.3 3.1-10.7-2.8-2-14.6 5.1-20.5 2.4-34.2-15.4-110.5-46.1-157.3-35.8-18.2 3.9-27.9 1.1-27.9-8.9 0-10-31-94.5-54.8-116.2-58.8 0.5-151.6 18.5-188.2 19.1-1.3 0-9.8-8.4-12.2-8-1.6 0.3-4.6 11.1-4.6 11.1z"/><path class="G" d="m360.4 379.2c0 0 62.3 44.5 94 144-7 16.1-0.1 30.6 22.2 22.1 15.4-3.9 99.9-19.9 158 50.7 87.8-35.4 186.7-69.4 186.7-69.4 0 0-107.9-56.1-169.5-42.5-18.2 3.9-27.9 1.1-27.9-8.9 0-10-31-94.5-54.8-116.3-73.5 0.8-208.7 20.3-208.7 20.3z"/><path class="H" d="m571.1 343.8l-179.9 12c-6.9 21.9 72.3 128.4 72.3 128.4 0 0 4.1 14.3 15 36.1l156-45.2c-16.7-70.4-63.4-131.3-63.4-131.3z"/><path class="I" d="m634.6 475.6q-0.1-0.2-0.1-0.5l-156 45.2q0.4 0.8 0.8 1.6c84.3-15.7 161.3 42.1 161.3 42.1 0 0 38.6-12.5 185.9-68.7-37.7-18.5-160.1-27.3-191.9-19.7z"/><path class="J" d="m644.2 551.1l-0.1 0.1c0 0-65.4-53.7-161.1-32.6-11.2-48-61.4-149-91.8-162.8-9.6 7.6-21.4 16.1-21.4 16.1 0 0 68.7 63.9 89 150 15.3-0.6 22.7 16.2 22.7 16.2 0 0 51.9-10.9 92.1 1.6 40.3 12.5 65.6 46.7 65.6 46.7l0.6-0.2 184.5-66.5 2.2-24.4z"/><path class="K" d="m644.1 551.2c0 0-65.4-53.7-161.1-32.6-11.2-48-61.4-149-91.8-162.8-9.6 7.6-21.4 16.1-21.4 16.1 0 0 68.7 63.9 89 150 15.3-0.6 22.7 16.2 22.7 16.2 0 0 51.9-10.9 92.1 1.6 40.3 12.5 65.6 46.7 65.6 46.7l0.6-0.2 4.4-35.1z"/><path class="H" d="m483 520.3c0 0 69-29 161.2 15.4 98-27.2 174.8-51.5 174.8-51.5 0 0-103.8-28.2-184.4-8.6-80.7 19.6-143.6 39.3-151.6 44.7z"/><path class="g" d="m483 518.6c0 0 5.7-95.4-65-176 45.8-5.3 177-7.7 177-7.7 0 0 42.9 77.4 39.6 140.7-71.1 18-151.6 43-151.6 43z"/><path class="C" d="m647.8 472.8c0 0-123.3 33-149.8 43.1-26.4 10-24.6 73-24.6 73l-11.4-16.4-10.7 10c0 0 4.6-52.2 30-70.2 25.5-18 142.8-39.5 166.5-39.5z"/><path class="L" d="m612.3 458.1c-17.4 0-33.7 1.3-47.5 3.7 0.9-12.6-0.5-27.4-4.7-42.7-10.4-38.4-34-65.4-52.6-60.3-18.7 5-25.3 40.2-14.9 78.6 7.2 26.6 20.7 47.6 34.5 56.5 13.7 9.4 46.7 16.1 85.2 16.1 50.8 0 92-11.6 92-26 0-14.3-41.2-25.9-92-25.9z"/><path class="x" d="m703.4 329c34.7 47.5 24.3 114.1-23.2 148.8-47.5 34.7-114.1 24.3-148.8-23.2-34.7-47.5-24.3-114.2 23.2-148.8 47.5-34.7 114.2-24.3 148.8 23.2z"/><g style="mix-blend-mode:multiply"><path class="M" d="m630 453.8q-0.1-0.3-0.3-0.6 0 0-0.1 0z"/></g><path class="t" d="m530.9 335.3c0.9-0.7 1.8-0.9 2.7-1.5 2-1.6 2.9-3.6 4.4-5.7 0.9-1.1 3.6-4.8 5.3-3.7-0.1 0.5-0.9 2-0.4 2.5 0.6 0.7 1.7-0.4 2.3-0.5 0 1.1-0.3 2.6 0.1 3.6 1.7 0.3 1.7-1.7 1.9-2.8 0.2-1.4 0.4-2.5 1.2-3.7 0.6-1 1.1-1.6 1.4-2.8 0.3-1.2 0.3-2.3 0.9-3.4 1.2-2.1 2.8-3.6 4.3-5.4 0.8-1 1.9-1.6 2.7-2.5 0.9-1 1.6-2.2 2.5-3.2 1.3-1.4 3.8-4.6 6-4.2-0.8 1.3-2.9 2.2-3.6 3.6-0.5 1 0 1.1-1 1.9-0.8 0.6-2.1 0.9-1.9 2.1 0.6 0 1.1-0.1 1.4 0.4 1.1-0.1 1.9-1.6 2.7-0.7 1 1.1-0.9 2-0.7 2.9 0.2 1.2 2-1 2.2-1.6 0.5-1 0.5-2.2 1.2-3.1 0.8-1.1 2.2-1.9 3.2-2.9 0.8-0.9 1.6-1.4 2.7-1.9 1.2-0.6 2.6-1.1 3.8-1.8 0.7-0.5 1.6-1.5 2.5-1.3 0 0 0.1 0.2 0.1 0.2 0.6-0.4 1.4-0.9 1.9-1.3 0.6-0.3 1.2-1.1 1.7-1.3 1.6-1 3.9-1.8 5.7-2.6 1-0.4 1.6-1.5 2.6-1.7 0.5 0 0.7 0.3 1.3 0 0.5-0.2 0.9-0.8 1.2-1 0.9-0.5 6-1.3 5.4-2.5-0.6-1-6.2 0-7.3 0.1q-2.8 0.1-5.6 0.6c-10.9 3.4-21.4 8.6-31.1 15.7q-6.9 5-12.8 10.9c-3.7 4-7.2 8.3-10.5 12.7-0.9 1.2-1.8 2.4-2.7 3.6q-1.6 2.4-3.1 4.8-0.6 1.5-0.9 3.1c1.3-1.2 2.8-2.3 4.2-3.4 0.7-0.6 1.4-1.5 2.1-2.2z"/><path class="t" d="m588.8 310.1c-1.2-0.4-1.6 0.8-2.5 1.1-0.1-0.2-0.1-0.5-0.1-0.7-0.7 0-1.2 0-1.9 0.1 0-0.2 0-1 0.1-1.2 0-0.1 0.3-0.2 0.5-0.3 0-0.2-0.2-0.3-0.2-0.5 0.6-0.5 0.5-0.7 0.5-1.3 0-0.1-0.2-0.3-0.3-0.4-0.5 0.1-1.7 0.6-1.9 0.7-0.4 0.2-1.2-0.2-1.2 0.9-0.8 0.1-2.5 0.6-2.6 0.8-0.9 1.6 1.4 0.9 0.7 2.3-0.8-0.7-1.7-0.5-2.6-0.3-0.6 0.3-1.2 0.4-1.8 0.5 0.4 1.5 0.1 1.3-0.6 2.3-0.2 0.3-0.7 0.2-0.9 0.6-0.3 0.3 0.2 1-0.1 1.4-0.9 1.2-4.4 1.4-3.2 3.6 1.1-1 2.3 0.5 3.2-0.8 0.7 0.4 3-1.5 3.5-2.2 0.6-0.7 0.5-1.4 1.3-1.9 0.2-0.1 1.4 0 1.8-0.2-0.3 1.5-2.9 2.6-3 4-0.2 1.6 0.9 0.7 1.5 0.4 0.4-0.2 0.5-2.3 1.4-0.6 1.1-0.4 2.8-1.3 3.2-2.4 0.4 0.5 0.9 0.8 1.6 0.7 0.3-1.1 1.6-1.2 1.4-2.6 0.2 0.1 0.5 0.2 0.8 0.4 0.5-0.6 0.2-1.4-0.2-1.9 1.2-0.3 1.5-1.5 1.6-2.5z"/><path class="N" d="m629.3 452.9q0-0.2-0.2-0.5-0.1-0.1-0.1-0.1z"/><path fill-rule="evenodd" class="t" d="m711.7 351.8c0.1-1-0.5-1.4-0.7-2.1-0.1-0.8 0.1-1.9-0.1-2.6-0.3-0.8-0.9-1.2-1.3-1.8-0.2-0.4 0.1-2.5-1.2-1.2 0.5 0.5 0.4 0.9 0.6 1.5-2.3 0.4-2.5-2-4.3-2.8 0-0.6 0.1-1.7-0.2-2.1-0.5-0.6-1.4-0.2-2-0.7-1.4-1.3 0.4-2.1-0.4-3.6-1.6 0.1-2-2.2-1.8-3.6-1.8-0.5-1.3 1.3-1.4 2.4-0.2 0-0.6 0.1-0.9 0.1-0.2 0.8 0.2 1.7-0.2 2.4-0.3 0.6-1.4 0.3-1.6 1-0.5 1.1 0.5 1.2 0.9 1.8 0.3 0.5 0.4 1.2 1 1.7 0.8 0.7 3.2 0.8 3.8 1.6 1 1.1-0.9 2.9 0.7 3.5v14.5c-1.4-1-0.8-2.4-2.4-3.6-0.7-0.6-1.5 0-2-1.2-0.4-0.7 0.2-1.4 0.2-2.3 0-1.8-1.1-3.6-3-4-0.1-1.4-0.1-1.6-0.8-2.6 0.1 0.1-1.1-0.5-1.1-0.6-0.1 0-0.2-0.7-0.4-0.9-1-0.8-1.6-0.6-1.9-1.5-0.4-0.9 0.8-1.6-0.5-2.1 0.3-1.6-1.4-1.3-2.2-2.3-1.4 0.3-7-0.1-6.8-2-1.2-1.3-0.8-0.8-2.6-1-0.8 0-1.8-0.6-2.8-0.4 0.5-2.5-1.5-1.5-2.7-1.3-0.5 0.1-1-0.3-1.6 0-0.6 0.3-0.4 1.2-1.1 1.5-0.6 0.2-3.4 0.2-3.9 0-0.4-0.2-2.3-1.5-2.5-2-1.4-0.1-2.1 1.4-3.5 1-0.5-1.2-1.3-0.7-2-1.3-0.8-0.7-0.7-1-0.7-2.4-2.3 0.9-2-1.5-3.4-1.9-2-0.7-3.1 2.6-1.2 2.9-0.8 1.9 1.4 2.2 2.3 3.1 0.8 0.8 1.5 2.7 2.6 3.3 1 0.4 1.2-0.3 2.2-0.1 0.7 0.2 0.6 1.1 1.5 1.2 2.4 0.3 2.1-2.2 2.6-3.6 1.9-0.5 2.4 2.2 2.9 3.4 0.5 1.6 0 1 1.5 1.3 0.8 0.2 1.8-0.6 1.7 1.1 2.7-2.5 0.9 2.8 0.9 3.4 0.3-0.1 1 0 1.3-0.1-0.4 1.4-0.8 3.7 1.3 3.7-0.3 1.3-2.4 2.7-1.2 3.8-1.3 1.4-3.2 2.2-4.2 3.6-0.4 0.5 0.3 0.6-0.6 1.3-0.5 0.4-1.2 0.3-1.7 0.4-1.1 0.3-2.1 0.6-3.2 1-1.8 0.7-3.6 1.4-5.5 0.7-2.4-0.8 0-3.7-1.9-3.8 0.4-1.7 1-3.7-1.5-4 0-0.7-5.4-2.6-6.6-3.1-2.2-1-4.5-2.7-7-2.5-0.4-0.9-1.2-1.5-2.3-1.3 0.2-1.2-1.3-2-1.9-2.7-0.5-0.6-1.2-2-2.2-2.5-1.8 0.9-3.6 1.7-2.9 3.1 1.3 0.3 2.9-1 3.7 0.6 0.6 1.1-1.7 0.5-2.7 0.9-1.4 0.6-2.3 1.7-0.4 2.8 0.9 0.5 4 0 3.2 1.9 1.9 0.9 3.7 1.3 5.5 2.1 0.5 0.3 1.2 0.1 1.7 0.6 0.2 0.3-0.1 1.1 0.3 1.6 0.6 0.6 1.9 0.9 2.9 1.1 0.1 0.8 0.1 2 0.4 2.7 0.4 1.2 0.3 0.5 0.9 1.3 1 1.1 1.5 1.1 1.4 2.9 0.7 0 1.3-0.1 2-0.1 1.2 3 1.8 0 4 0.4 0.4 0.6 0.5 1.3 0.2 2 3.2 0.2-0.6 2.3-1.5 2.7 0.7 2.8 5.5-0.1 7.3 0.1 0.1-2.7 2.6-1.6 4-2.1 1.5-0.5 1.9-2.8 3.6-3 0-1.8 2.1-0.5 3-1.5 0.8-0.8 0-3.1 1.9-2.8 0.8 1.5-0.3 4.4-0.7 6-0.4 2-2 3.6-1.9 5.5q0.3 0.1 0.5 0.2c-0.2 2.3-1.7 3.8-3.9 4.2-0.2 1 0.7 2 0.3 2.8-0.3 0.6-1.5 0.6-1.8 1.3-0.8 1.4 0.6 3.4-1.9 3.9-0.1 0.9-1.1 1.3-0.9 2.4 0.2-0.1 0.6 0 0.8 0 0 1.8-0.4 2.1-1.5 3.2-1.1 1.1-1.4 1.7-2 3-0.4 0.9-0.3 1-1 1.7-0.4 0.5-1.4 0.8-1.6 1.3-0.6 1.1 0 2.7-0.5 3.8-0.4-0.1-1 0-1.4-0.1-0.5 1.5-0.1 1.4-1.4 2-0.8 0.4-2.1 0-2.8 0.8-1.9 2.7 2.7 1.8 3.7 2.1 0.3 1.1 1.3 1.2 2 1.9 0.6 0.7 1.1 1.3 1.6 2.1q0.1 0.1 0.2 0.3 0 0 0 0c1.4 0.4 3.5 0.6 2.7 2.6 0.3 0.1 0.5 0.2 0.7 0.3-0.4 1.3 0.4 2.4 0.6 3.7 0.2 0.9-0.3 2.8 0 3.1-0.1 0.6-0.1 1.1-0.4 1.7-0.3 0.8-1 0.9-1.3 1.5-0.4 0.7-0.1 1.8-0.5 2.4-0.4 0.4-1.3 0.4-1.8 1-1.3 1.4-0.9 2.4-3 3-1.3 0.4-3.4 0.2-3 2.1 0.3 1.4 1.7 1 2.7 2 0.7 0.8 0.2 0.8 0.5 1.4 0.3 0.6 0.8 1.1 1.1 1.7 0.5 1 0.4 1.9-0.6 3.2-0.8 1.1-1.9 1.3-3.1 1.7-0.3 2-4.1 0.6-4.7 2.8 2.1 0.4 0 2.6 1.8 3.3-0.2 1.4 0.6 1.5-0.4 3-0.7 1.1-1.6 1.4-2.7 1.9-2.1 1.1-3.8 2.2-6.3 2.3-0.1 1.5-1.2 1.5-2.3 1.8-1.8 0.5-1 0.2-2.1 1.5-0.7 0.9-1.3 1.4-1.7 2.3-0.5 1-0.2 2.7-1.7 2.5 0.1-1.8-1.5-2.1-3-2.3 0-1.3 0-1.9-0.4-3.1-0.1-0.2-0.6 0-0.7-0.3-0.1-0.3 0.2-0.8 0.1-0.9-0.2-0.6 0-0.8-0.4-0.9-0.6-0.9-1.8-2.1-2.7-2.2-0.5-0.5-0.2-0.4-0.8-0.7 0-0.3 0-0.7-0.1-0.9-1.2-0.7-0.6-2.2-1.3-2.9-0.6-0.7-2-0.3-2.6-0.9-1.8-1.6 2.4-3.7 0.4-4.6 0-1.1 1-0.9 1.5-1.5 1.7-1.8 0.3-1.3-1.5-1.7-0.7-0.1-1.2-0.6-1.9-0.8-0.7-0.1-1.5 0.2-2.1-0.1-1.1-0.6-1.5-1.6-3.1-2.3-1-0.4-3.2-1-3.7-2.1 0 0-0.3-2.4-0.4-2.3 0.1-0.9 0.1-0.8 0.4-1.7 0.5-1.6 1.4-1.9 2.4-3.2 0.9-1.2 1.4-2 1.3-3.3 0-0.3-0.8-0.6-0.9-1 0-0.3 0.6-0.5 0.6-0.8 0-0.7-0.1-1.3 0-2-2-0.3-1.9-1.9-1.2-3.2q-0.1-0.1-0.2-0.2c-0.6-1.2 1.4-2.9-1.2-3 2.5-2.2-3.9-2.8-5.2-3.8-1.1-0.9-1.5-1.7-2.6-2.6-1-0.9-1.8-1.6-1.7-3.2 0.1-1.6 1.3-3 1.1-4.7-0.1-1.5-1-2.6-1.7-3.6-0.6-0.9 0.1-0.8-1.1-1.3-0.5-0.3-1.5-0.3-2.1-0.2-0.8 0.2-1.1 0.9-1.7 1.1-0.8 0.2-1-0.5-1.9-0.3 0 1-1.3 2.1-2.3 1.5-0.1-0.1-0.3-2.2-0.6-2.6-0.6-1.3-1.4-3.9-3.3-3.7 0-0.2 0-0.3-0.1-0.5-1.9-2.5-2.1 1.7-3.4 2.8-0.7 0.6-2.1 0.6-3 1.4-0.7 0.6-1.2 1.7-2.4 1.7-0.4 2.5-2.1 1.1-3.4 1.1-0.9 0-1.2 0.4-2.1 0.3-0.8 0-1.1-1-2.2-0.7 0 1.9-2.9 2.7-4.4 2.4-1.7-0.2-1.2-1.1-2.1-2-0.7-0.8-1.6-0.8-2.1-1.7-0.4-0.6-0.5-1.7-0.9-2.5-0.6-0.9-0.8-1.4-1.5-2.3-0.9-1.2-1.5-4.2-3.4-3.9-0.1 0.2-0.3 0.5-0.4 0.7-0.4-0.3-0.8-0.8-1-1.4 0.5-0.6 0.5-1.4 0.2-2.1-0.3 0-0.6-0.1-0.9-0.1 0.1-0.7-0.2-1.4-0.6-1.8-0.3 0-0.5-0.1-0.7-0.1 0-2.3 1.8-3.8 2.6-6 0.6-1.7-0.1-1.7-0.4-3.2-0.2-1 0.5-2.6 0.9-3.4-0.6-0.4-0.3-0.3-0.5-1 1.2-0.2 1.6-1.6 3-1.5 0.5-1-0.3-1.9-0.2-3-0.3 0-0.8-0.1-1.1-0.1 0.5-1.5 2.7-2.8 3-4.2-0.3-0.1-0.5-0.3-0.7-0.3 0.7-0.7 2.4-2.2 2.3-3.2 1.5-0.7 2-1 3-2.3 0.5-0.7 1.8-1.7 1.7-2.8 1.6-0.7 1.7-3.4 2.5-4.7 0.2-0.3 1.4-1.4 1.8-1.7 0.7-0.6 1-1.2 2.1-1 0.5-1.5 1.7-0.2 2.6 0.1 1.4 0.4 1.2 0.3 2.5-0.6 1.8-1.4 2.8-2.5 5.1-2.7 0.7-1.7 4-1.4 5.3-1.5 0.7 0 2.2 0.1 3-0.2 1-0.3 1.4-1.2 2.5-0.7 0.6 1.1 1.3 1.6 1 3.1 0.2 0.1 0.4 0.2 0.7 0.3-1.7 2.7 3.1 2.5 4.2 2.4 0.8 0 2-0.6 2.7 0.4 0.5 0.8-1.4 1.7 0.6 1.9-0.6 2.6 6-0.7 6.3-0.4 2.7-0.3-0.8-4.7 2.9-4.2 0.4 0.1 1.4 0.6 1.8 0.8 0.5 0.2 0.9-0.2 1.3 0 0.9 0.6 0.5 2 1.9 2.1 0.5-0.6 0.5-1.2 0.1-1.8 0.4-0.8 1.2-0.9 1.7-1.6 0.4-0.5 0-1.4 0.5-2.1 0.8 0 1.4 0.4 1.8 1.1 0.5-0.3 0.8 0 1.4 0.1 0.2 1.5 4.4-0.4 5.3-1 0.1 0.2 0.2 0.4 0.3 0.5 0.7 0.1 1.3-0.2 1.3-1 0.3 0 0.6-0.1 0.9-0.1 0.1-0.3 0.2-0.4 0.3-0.6q0-0.2 0.1-0.5c-0.4 0-0.8 0-1.1 0 0-1.4-1.9-1.9-2.6-2.1 1.1 0 1.9 0.3 2.9 0.2-0.5-0.5-1.2-0.8-1.8-1.3 0.3 0.1 0.5 0.1 0.8 0.2-0.8-1.5 0.3-3.1-2.1-2-0.4 0.2-1 1.3-1.6 1.4-0.9 0-0.7-0.8-1.5-1-1.1-0.2-3 0.7-4 1-1.5 0.5-2.5 1.3-4.1 1.1-0.1-0.3-0.1-0.6-0.1-0.9-1.4-0.6-0.7-2.7-0.9-4q-0.4 0-0.7 0 0.2-1.1-0.8-1.5c0.5-1.3-0.7-1.6-1.7-1.2-1.8 0.8 0.1 0.8-0.3 1.9-0.1 0.5-1.2 0.4-1.3 0.8-0.2 0.8 0.4 0.6 0.4 1 0.1 0.6 1.6 1 0.1 1.7 0 0.1 0.2 0.3 0.2 0.4 0 0.3-0.2 0.9-0.3 1.2-2.5 0.6-1.7-1.4-2.4-2.8-0.6-1.3-2.1-2.2-3-2.8-2.6-1.6-4.7-4.4-8.3-2.8-0.7 2.2 2.5 2.7 4.1 2.8-0.4 3.1-4.1 0.1-5.3-0.2-0.5-0.2-1 0-1.5-0.2-0.5-0.2-0.8-0.6-1.2-0.7-1.5-0.5-1.5-0.1-2.8 0.5-0.6 0.2-1 0-1.6 0.3-0.5 0.4-0.3 1.2-0.9 1.6-1.3 0.8-2-0.4-3.3 0.1-2.5 0.9 0.6 3.9-3.4 3.7-0.2 0.8-1.3 2.2-1.8 2.8-0.8 0.8-1.3 1.6-2 2.3-0.6 0.5-1.3 0.7-1.9 1-0.4 0.1-0.8-0.2-1.2 0-0.3 0.1-0.4 0.7-0.7 0.9-0.8 0.3-2.1 1.3-2.9 1.5-4.2 0.7-1-3.4-0.8-5.3 0.2-1.5 0.3-2.2 0.8-3.4 0.4-0.9 0.9-1.8 1.6-2.5 0.7 0.6 1.3 0.3 2.2 0.2 0.3 0 0.4 0.5 0.8 0.4 0.3 0 0.4-0.5 0.7-0.6 0.9-0.2 2.4-1.4 3.1-0.7 1.7-1 3.5-4.7 0.2-4.6 0.2-0.2 0.2-0.8 0.5-1-0.2-0.1-0.5-0.1-0.7-0.1 0.8-2.1 3.4-0.3 4.3-1.7 0.8 0.4 1.4 0.3 2.2 0.4 0.6-0.6 0.5-1.5 1-2 0.4-0.5 1.2-0.5 1.6-1 0.9-1.2 0.2-3 1.7-4 0.6-0.4 1.5-0.1 2.2-0.6 0.9-0.6 0.7-1.2 1.9-1.5 1.6-0.4 2.6 0.9 3.8 0.9 0.4 0 1.7-0.8 2.3-0.9 0.6-0.2 1.7-0.1 2.2-0.4 0.7-0.3 1-0.9 1.7-1.2 1-0.3 1.2 0.2 1.9 0.1 2.3 0 0.4-0.6 1.1-2.1 0.6-1.1 3.2-2.1 3.9-0.8 0.3-0.2 6.8 1.5 4.1-1.8-0.1-0.1-1.4-0.3-1.7-0.4-0.3-0.2-0.4-0.8-0.9-1-1.3-0.4-2.7 0.3-4-0.2 0.1-2.4-1.3-1.6-2.7-1-2.2 1-2-0.3-4.1-0.5-0.2-1.3 1.1-1.9 0.9-3.1-1.2-0.3-1.3 0.4-1.9 0.9-0.2 0.1-1.2 1.2-1.3 1.6-0.6 1.3 1.1 3.3-0.9 3.7 0.7 1.7-1.8 3.8-3.4 3.3-0.3-1.4 0.1-3.1 0.1-4.6-1.1-0.2-1.2 0.8-2.2 0.9-0.5-2.7-2.2 0.6-2.7 1.1-0.4-0.3-0.7-0.1-1.1-0.3 1 1.9-2.4 3.2-1.9 1 0 0-0.2 0.2-0.4 0.1-0.2-2 2.4-4.4 4-5.5 2.3-1.6 4.7-1.5 6.4-3.8 1.6-2.1 3.9-2.8 6.6-3.2 1.2-0.2 2.5 0.4 3.7 0.5 0.9 0.1 2.7-0.1 3.4 0.6-0.5 0.7-1.4 1-2 1.5 0.7 0.5 1.5 0.4 2.3 0.7-0.6 0.1-1.5 0.6-0.8 1.3 0.4 0.4 1.7-0.1 2.3 0-0.2 0.1-0.6 0.4-0.8 0.5 0.7 0.3 1.7 0.5 2.7 0.4-0.8 0.9-0.2 1.4 0.4 1.5 0.6 0.2 1.1-1.8 1.7 0 1.5-0.2 1.2-1.8 0.5-2.7 1.9-1.2 0.9-2.3-0.9-2.6-1.4-0.2-2.9 0.4-3.2-1.5 0.1-0.1 0.4-0.1 0.5-0.1-1.7-1.8 0.9-1.2 1.6-1.5-0.6-1.5 3.2-0.8 1.6-2.9-0.4-0.6-3.1-0.5-3.6-1.3-0.6-0.8-0.7-0.4-0.1-1.4 0.4-0.7 1.1-1.3 2-1.7 33.2-0.3 66 14.9 87 43.7 6.2 8.4 10.9 17.4 14.2 26.7-1.4-0.2-5-3.4-5.9-3.9zm-76.7-31.1q-0.2 0-0.3-0.1c-0.2-0.6-0.5-0.8-1.4-0.7 0.1-0.2 0.1-0.5 0.2-0.7-1.7-0.3-3.9 0.7-5.5 0-2.5-1.3 1.5-1.1 1.7-2.3-0.4-0.1-0.6-0.4-1.1-0.4 0.2-0.2 0.2-0.4 0.5-0.6 0-0.2-0.1-0.6-0.2-0.9q-0.3 0-0.7 0c0.1-0.5-0.1-0.5-0.4-0.8l-0.9-0.3c-0.8-1.4-1.3 0.3-1.7 0.6-0.9 0.5-1.1 0.7-2.1 0.4-0.9-0.3-1.4-0.9-2.3-1-0.2 0-1.7 0.5-2.2 0.6-1.7 0.3-3.8 0.8-5.5 1.1-2 0.2-4.2 0.3-4.7 2.6 1.3 0.2 2.4 0 3.7 0 0.2 1.4 2.5 0.1 3.6 0.2 0 0.3 0.1 0.7 0.1 0.9 1.6 0.4-0.1 0.9 0.1 1.3 0.5 1 0.7 0.4 1.7 1.2 1.3 0.8 1.9 2.1 3.4 2.6 0.8 0.3 1.7-0.1 2.5 0 0.8 0.2 1.6 1.3 2.6 0.8 1.1-0.6 0.6-4.1 2.5-1.9 0.5-3 6.7 1.3 6.4-2.6zm21.6 4.5c-0.5-0.7-1.3-1.2-2.3-1.2 1.6-2.4-1.3-1.5-0.8-3.9-0.9-0.5-1.8 0.2-2.7 0.2 0-0.3-0.1-0.7-0.1-0.9-1.1 0-5.2-1.4-2.7-2.7-0.8-0.4-1.1-1.2-0.9-2.1-2.1-0.1-6-0.1-6.5-2.8-0.3-1.8 4.1-2.6 2.9-4.8l-0.2-1.1c0.1-0.1 0.4 0 0.2-0.3-0.9-0.1-1.9-0.1-2.8 0 0.1 0.2-0.1 0.6 0 0.8-1.3 0.3-1.9 1.5-3.2 1.6 0.5 1.5-0.5 1.7-1.1 2.8 1.2 0.4 0.5 1.9 0.4 2.8 0.5 0.8 0.8 1.7 2.2 1.4-0.4 1.5 0.9 1.8 2 1.9-0.1 1.9 2.2 2.3 2.5 4.1 0.4 2.1-0.1 2.8 2 3.8 2.8 1.3 8.4 3.1 11.1 0.4z"/><path class="t" d="m664.6 442.7c1.3 0.4 2.2 0.2 3.1-0.8 0.4-0.4 0.4-1.1 0.8-1.4 0.3-0.3 1.2-0.3 1.5-0.7 0.4-0.5 0-1.3 0.3-1.7 0.5-0.5 1.3-0.2 1.8-0.7 1.1-0.9 0.5-1.8 0.7-3.2 0.4-2.2 2.8-2.4 4.7-3.5 0.9-0.5 2.2-0.9 1.6-2-0.6-1-1.9-0.1-3-0.4 0.2-1.7 0.7-2-1.5-2.3-0.1-1.2 0.6-2 1.8-2.1-0.2-0.5 0-1-0.1-1.4 1.9-0.1 1.5-2.6 1.7-3.7 0.1-0.7 0.5-1.2 0.5-2 0.1-0.8-0.3-1.6-0.2-2.1 0.1-1.3 1.2-7.1-1.4-7.8-0.3-0.5-0.7-0.7-1-1.1l-1.2 0.2c1.7 2 0.8 2.2-0.1 4-0.7 1.1 0.1 3.1-0.7 4.2-0.5 0.6-1.6 0.7-2.2 1.2-0.5 0.5-1 1.5-1.3 2.1-0.3 0.6-0.5 1.7-0.8 2.1-0.6 0.9-1.5 1-2.2 1.6-1.6 1.5-1 2.5-0.6 4.1 0.2 1.2 0.3 2.8 0 4.3-0.1 0.8-0.5 1.6-0.8 2.3 0 0.1-0.5 1.2-0.5 1 0.1 0.4 0.7 0.9 0.7 1 0.1 1.5-0.3 2.9-0.7 4.4-0.4 1.3-0.1 3.3-0.9 4.4z"/><path class="t" d="m553.1 475.2c-0.5-0.5-0.8-1.5-1.3-2.1-0.8-1.3-1.7-2.6-2.7-3.7-1.1-1.3-2.9-2.3-3.6-3.8-0.6-1.4-0.6-3.7-2.4-4.2 0.3-1.5-1-2.1-0.8-3.6-0.7 0-1.9-1.1-2.2-1.5-0.7-0.9-0.7-1.4-1-2.6-0.1-0.4-0.7-0.6-0.9-1.1 0 0 0.3-1.2 0.4-1.2 0.3-1.2 0-1.3 1.3-1.9 1.1-0.5 1.5 0.5 2.1-0.9 0.1-0.5-0.4-1.9-0.7-2.5-0.8-1.8-0.8-3-2.9-3.1-0.9-0.6-0.5-1.2-0.8-2-0.5-1.3-1-2.5-1.3-3.8-0.2-0.7 0-1.9-0.4-2.5-0.4-0.5-1.1-0.4-1.6-0.9-1.5-1.6-0.4-1.7 0.5-2.7 0.6-0.7 0.5-0.5 0.9-1.4 0 0-0.4-0.5-0.3-0.8 0.1-0.4 0.7-0.4 0.8-0.6 0.7-1.3 1.5-2.5 1.6-3.9 0.1-1.5-0.8-2.4-1-3.9-0.1-1.6 0.7-2.2-1.1-3.5-0.9-0.6-3.2-1-3.4-1.9-1.3-0.3-3.2 1.5-3.2-0.8-2.1-0.6-1.9 2.1-3.8 1.7-0.4-1.2-1.7-4.1-3-4.4-0.2-1.2 1.4-4.4-1.1-3.9 0-0.7-0.1-1.4-0.1-2.1-0.5-0.3-0.4-0.1-0.5-0.8-0.5-2.3 1.1-6-1.5-7.6-1.1-0.7-2.4 0.4-3.6-0.5-1-0.9-0.9-3.1-0.7-4.3 0.3-2 0-2.6-0.7-4.4-0.6-1.6-0.1-2.7-0.5-4.3-0.7-2.5-1-5-1.5-7.6-4 26.7 2.1 54.9 19.3 78.5 6.2 8.6 13.6 15.9 21.6 22.1 0.7 0 1.5 0 2.1 0-0.6-0.6-1.4-0.8-2-1.5z"/><path class="t" d="m681.9 471.2v-0.3c-0.3 0.9-0.5 1.5-1.1 2.2-0.8 0.8-0.7 0.7-1.1 1.8-0.2 0.5-0.2 0.6-0.5 1.1 0 0-0.7 0.9-0.6 0.9-0.5 0.3-1.2 0.4-1.6 0.9-0.8 0.7-0.6 1-1.7 1.5-0.7 0.3-1.5 0.8-2.3 0.9-1.9 0.3-1.7-2.2-3.5-1.9-0.2 0.5-0.9 0.5-1.5 0.8-0.5-0.9-1.2-0.5-2-0.3-0.8 1.4-1.9 2.7-3.5 3.1-1.3 0.3-1.1-0.2-2.2-0.4-0.3 0-1.1 0.1-1.4 0.3-0.5 0.4-0.3 0.7-0.7 1-0.7 0.5-1.5 0.5-2.2 1-0.7 0.5-1.3 1.2-2.2 1.5-1.1 0.4-2.1 0.3-3.2 0.8-0.8 0.4-2.2 0.5-2.9 1-0.4-0.3-0.9-0.6-1.4-0.5 0.1 0.2 0 0.5 0 0.7-0.7 0-1 0.6-1.5 0.9-0.3 0.2-0.6 0.1-0.9 0.4-0.3 0.2-0.4 0.4-0.6 0.7 0.8 0.2 0.5 0.5 0.3 1 0.1 0-0.8 1.2-0.7 1.2-0.9 0.6-2.9 0.4-3.3-0.6-0.5 0.5-1.5 0.6-1.8 1.2-0.7-0.2-1.2-0.6-2-0.7-1.2-0.2-1.4 0.4-2.3 0.7-1.5 0.5-3-0.5-4.3-0.1-0.1-1.2-1.2-1-1.1 0.1-0.6 0-1.1-0.1-1.6 0.3-0.6-0.3-1.3-0.5-1.9 0-1.3-1.3-4.9 1.6-6 2.5-0.3 0.2-0.3 0.7-0.5 0.9-0.3 0.2-0.7 0.3-0.9 0.5-0.5 0.4-0.8 0.8-1.2 1.1-0.3 0.3-0.7 0.6-1.1 0.9 22.6 0.5 45.6-6.1 65.3-20.5q0.3-0.2 0.5-0.4c0.1-0.6 0.1-1.1 0.3-1.7 0.1-0.4 1.7-1.6 0.3-1.6 0.7-0.6 0.2-0.9 0.3-1.4 0.2-0.5 0.5-1 0.3-1.5z"/><path class="t" d="m575.1 308c0 0 2.5-1.2 2.6-1.3 0.8-0.7 0.2-2 1.9-1.8 0.9-1.6 1.8-2.5 2.7-4.1 0.4 0 0.6-0.4 0.9-0.6l0.9-0.9c-0.5 0.5-3.7 2-4.7 2.2-0.8 0.2-1.4 0.1-2.2 0.3-1.9 0.5-1 0.6-1.8 1.8-0.4 0.9-2.9 4.1-0.3 4.4z"/><g clip-path="url(#cp1)"><path class="O" d="m477.9 322.1c29.9 40.9 20.9 98.3-20 128.2-40.9 29.9-98.3 20.9-128.2-20-29.9-40.9-20.9-98.3 20-128.2 40.9-29.9 98.3-20.9 128.2 20z"/><path class="P" d="m470.1 327.8c26.8 36.6 18.8 88-17.9 114.7-36.6 26.8-88 18.8-114.8-17.9-26.7-36.6-18.7-88 18-114.8 36.6-26.7 88-18.7 114.7 18z"/></g><path class="Q" d="m579.7 292.2c-16.1 8.3-28.3 21.4-33.5 38.1-12.4 39.5 18.3 84.3 68.6 100.1 45.4 14.3 91.3 0 108.9-32 1.5-24-5-48.5-20.3-69.4-28.9-39.6-79.9-53.4-123.7-36.8z"/></svg>